<svg class="rich-terminal" viewBox="0 0 1482 830.8" xmlns="http://www.w3.org/2000/svg">
    <!-- Generated with Rich https://www.textualize.io -->
    <style>

    @font-face {
        font-family: "Fira Code";
        src: local("FiraCode-Regular"),
                url("https://cdnjs.cloudflare.com/ajax/libs/firacode/6.2.0/woff2/FiraCode-Regular.woff2") format("woff2"),
                url("https://cdnjs.cloudflare.com/ajax/libs/firacode/6.2.0/woff/FiraCode-Regular.woff") format("woff");
        font-style: normal;
        font-weight: 400;
    }
    @font-face {
        font-family: "Fira Code";
        src: local("FiraCode-Bold"),
                url("https://cdnjs.cloudflare.com/ajax/libs/firacode/6.2.0/woff2/FiraCode-Bold.woff2") format("woff2"),
                url("https://cdnjs.cloudflare.com/ajax/libs/firacode/6.2.0/woff/FiraCode-Bold.woff") format("woff");
        font-style: bold;
        font-weight: 700;
    }

    .terminal-matrix {
        font-family: Fira Code, monospace;
        font-size: 20px;
        line-height: 24.4px;
        font-variant-east-asian: full-width;
    }

    .terminal-title {
        font-size: 18px;
        font-weight: bold;
        font-family: arial;
    }

    .terminal-r1 { fill: #eae6da }
.terminal-r2 { fill: #c5c8c6 }
.terminal-r3 { fill: #67573a }
.terminal-r4 { fill: #50534b }
.terminal-r5 { fill: #0d0f0b }
.terminal-r6 { fill: #000000 }
.terminal-r7 { fill: #171918 }
.terminal-r8 { fill: #74796b }
.terminal-r9 { fill: #00ff00 }
.terminal-r10 { fill: #eae6da;font-weight: bold }
.terminal-r11 { fill: #1a1e16 }
.terminal-r12 { fill: #b7b19f }
.terminal-r13 { fill: #a3a297 }
.terminal-r14 { fill: #000402 }
.terminal-r15 { fill: #252723 }
.terminal-r16 { fill: #6b6b65 }
.terminal-r17 { fill: #191c18 }
.terminal-r18 { fill: #4d432f;font-weight: bold }
.terminal-r19 { fill: #3e403a }
.terminal-r20 { fill: #67573a;font-weight: bold }
    </style>

    <defs>
    <clipPath id="terminal-clip-terminal">
      <rect x="0" y="0" width="1463.0" height="779.8" />
    </clipPath>
    <clipPath id="terminal-line-0">
    <rect x="0" y="1.5" width="1464" height="24.65"/>
            </clipPath>
<clipPath id="terminal-line-1">
    <rect x="0" y="25.9" width="1464" height="24.65"/>
            </clipPath>
<clipPath id="terminal-line-2">
    <rect x="0" y="50.3" width="1464" height="24.65"/>
            </clipPath>
<clipPath id="terminal-line-3">
    <rect x="0" y="74.7" width="1464" height="24.65"/>
            </clipPath>
<clipPath id="terminal-line-4">
    <rect x="0" y="99.1" width="1464" height="24.65"/>
            </clipPath>
<clipPath id="terminal-line-5">
    <rect x="0" y="123.5" width="1464" height="24.65"/>
            </clipPath>
<clipPath id="terminal-line-6">
    <rect x="0" y="147.9" width="1464" height="24.65"/>
            </clipPath>
<clipPath id="terminal-line-7">
    <rect x="0" y="172.3" width="1464" height="24.65"/>
            </clipPath>
<clipPath id="terminal-line-8">
    <rect x="0" y="196.7" width="1464" height="24.65"/>
            </clipPath>
<clipPath id="terminal-line-9">
    <rect x="0" y="221.1" width="1464" height="24.65"/>
            </clipPath>
<clipPath id="terminal-line-10">
    <rect x="0" y="245.5" width="1464" height="24.65"/>
            </clipPath>
<clipPath id="terminal-line-11">
    <rect x="0" y="269.9" width="1464" height="24.65"/>
            </clipPath>
<clipPath id="terminal-line-12">
    <rect x="0" y="294.3" width="1464" height="24.65"/>
            </clipPath>
<clipPath id="terminal-line-13">
    <rect x="0" y="318.7" width="1464" height="24.65"/>
            </clipPath>
<clipPath id="terminal-line-14">
    <rect x="0" y="343.1" width="1464" height="24.65"/>
            </clipPath>
<clipPath id="terminal-line-15">
    <rect x="0" y="367.5" width="1464" height="24.65"/>
            </clipPath>
<clipPath id="terminal-line-16">
    <rect x="0" y="391.9" width="1464" height="24.65"/>
            </clipPath>
<clipPath id="terminal-line-17">
    <rect x="0" y="416.3" width="1464" height="24.65"/>
            </clipPath>
<clipPath id="terminal-line-18">
    <rect x="0" y="440.7" width="1464" height="24.65"/>
            </clipPath>
<clipPath id="terminal-line-19">
    <rect x="0" y="465.1" width="1464" height="24.65"/>
            </clipPath>
<clipPath id="terminal-line-20">
    <rect x="0" y="489.5" width="1464" height="24.65"/>
            </clipPath>
<clipPath id="terminal-line-21">
    <rect x="0" y="513.9" width="1464" height="24.65"/>
            </clipPath>
<clipPath id="terminal-line-22">
    <rect x="0" y="538.3" width="1464" height="24.65"/>
            </clipPath>
<clipPath id="terminal-line-23">
    <rect x="0" y="562.7" width="1464" height="24.65"/>
            </clipPath>
<clipPath id="terminal-line-24">
    <rect x="0" y="587.1" width="1464" height="24.65"/>
            </clipPath>
<clipPath id="terminal-line-25">
    <rect x="0" y="611.5" width="1464" height="24.65"/>
            </clipPath>
<clipPath id="terminal-line-26">
    <rect x="0" y="635.9" width="1464" height="24.65"/>
            </clipPath>
<clipPath id="terminal-line-27">
    <rect x="0" y="660.3" width="1464" height="24.65"/>
            </clipPath>
<clipPath id="terminal-line-28">
    <rect x="0" y="684.7" width="1464" height="24.65"/>
            </clipPath>
<clipPath id="terminal-line-29">
    <rect x="0" y="709.1" width="1464" height="24.65"/>
            </clipPath>
<clipPath id="terminal-line-30">
    <rect x="0" y="733.5" width="1464" height="24.65"/>
            </clipPath>
    </defs>

    <rect fill="#292929" stroke="rgba(255,255,255,0.35)" stroke-width="1" x="1" y="1" width="1480" height="828.8" rx="8"/><text class="terminal-title" fill="#c5c8c6" text-anchor="middle" x="740" y="27">Ethernity&#160;-&#160;command-palette-restore&#160;-&#160;120x32</text>
            <g transform="translate(26,22)">
            <circle cx="0" cy="0" r="7" fill="#ff5f57"/>
            <circle cx="22" cy="0" r="7" fill="#febc2e"/>
            <circle cx="44" cy="0" r="7" fill="#28c840"/>
            </g>

    <g transform="translate(9, 41)" clip-path="url(#terminal-clip-terminal)">
    <rect fill="#171918" x="0" y="1.5" width="1464" height="24.65" shape-rendering="crispEdges"/><rect fill="#171918" x="0" y="25.9" width="24.4" height="24.65" shape-rendering="crispEdges"/><rect fill="#171918" x="24.4" y="25.9" width="109.8" height="24.65" shape-rendering="crispEdges"/><rect fill="#171918" x="134.2" y="25.9" width="61" height="24.65" shape-rendering="crispEdges"/><rect fill="#171918" x="195.2" y="25.9" width="280.6" height="24.65" shape-rendering="crispEdges"/><rect fill="#171918" x="475.8" y="25.9" width="890.6" height="24.65" shape-rendering="crispEdges"/><rect fill="#171918" x="1366.4" y="25.9" width="73.2" height="24.65" shape-rendering="crispEdges"/><rect fill="#171918" x="1439.6" y="25.9" width="24.4" height="24.65" shape-rendering="crispEdges"/><rect fill="#171918" x="0" y="50.3" width="1464" height="24.65" shape-rendering="crispEdges"/><rect fill="#1a1e16" x="0" y="74.7" width="1464" height="24.65" shape-rendering="crispEdges"/><rect fill="#1a1e16" x="0" y="99.1" width="12.2" height="24.65" shape-rendering="crispEdges"/><rect fill="#1a1e16" x="12.2" y="99.1" width="36.6" height="24.65" shape-rendering="crispEdges"/><rect fill="#373423" x="48.8" y="99.1" width="1403" height="24.65" shape-rendering="crispEdges"/><rect fill="#1a1e16" x="1451.8" y="99.1" width="12.2" height="24.65" shape-rendering="crispEdges"/><rect fill="#1a1e16" x="0" y="123.5" width="12.2" height="24.65" shape-rendering="crispEdges"/><rect fill="#1a1e16" x="12.2" y="123.5" width="12.2" height="24.65" shape-rendering="crispEdges"/><rect fill="#1a1e16" x="24.4" y="123.5" width="24.4" height="24.65" shape-rendering="crispEdges"/><rect fill="#373423" x="48.8" y="123.5" width="12.2" height="24.65" shape-rendering="crispEdges"/><rect fill="#eae6da" x="61" y="123.5" width="12.2" height="24.65" shape-rendering="crispEdges"/><rect fill="#373423" x="73.2" y="123.5" width="231.8" height="24.65" shape-rendering="crispEdges"/><rect fill="#373423" x="305" y="123.5" width="1134.6" height="24.65" shape-rendering="crispEdges"/><rect fill="#373423" x="1439.6" y="123.5" width="12.2" height="24.65" shape-rendering="crispEdges"/><rect fill="#1a1e16" x="1451.8" y="123.5" width="12.2" height="24.65" shape-rendering="crispEdges"/><rect fill="#1a1e16" x="0" y="147.9" width="12.2" height="24.65" shape-rendering="crispEdges"/><rect fill="#1a1e16" x="12.2" y="147.9" width="12.2" height="24.65" shape-rendering="crispEdges"/><rect fill="#1a1e16" x="24.4" y="147.9" width="24.4" height="24.65" shape-rendering="crispEdges"/><rect fill="#373423" x="48.8" y="147.9" width="1403" height="24.65" shape-rendering="crispEdges"/><rect fill="#1a1e16" x="1451.8" y="147.9" width="12.2" height="24.65" shape-rendering="crispEdges"/><rect fill="#1a1e16" x="0" y="172.3" width="1464" height="24.65" shape-rendering="crispEdges"/><rect fill="#554b2f" x="0" y="196.7" width="24.4" height="24.65" shape-rendering="crispEdges"/><rect fill="#554b2f" x="24.4" y="196.7" width="231.8" height="24.65" shape-rendering="crispEdges"/><rect fill="#554b2f" x="256.2" y="196.7" width="1171.2" height="24.65" shape-rendering="crispEdges"/><rect fill="#1a1e16" x="1427.4" y="196.7" width="24.4" height="24.65" shape-rendering="crispEdges"/><rect fill="#594a2c" x="1451.8" y="196.7" width="12.2" height="24.65" shape-rendering="crispEdges"/><rect fill="#554b2f" x="0" y="221.1" width="24.4" height="24.65" shape-rendering="crispEdges"/><rect fill="#554b2f" x="24.4" y="221.1" width="512.4" height="24.65" shape-rendering="crispEdges"/><rect fill="#554b2f" x="536.8" y="221.1" width="890.6" height="24.65" shape-rendering="crispEdges"/><rect fill="#1a1e16" x="1427.4" y="221.1" width="24.4" height="24.65" shape-rendering="crispEdges"/><rect fill="#594a2c" x="1451.8" y="221.1" width="12.2" height="24.65" shape-rendering="crispEdges"/><rect fill="#1a1e16" x="0" y="245.5" width="24.4" height="24.65" shape-rendering="crispEdges"/><rect fill="#1a1e16" x="24.4" y="245.5" width="244" height="24.65" shape-rendering="crispEdges"/><rect fill="#1a1e16" x="268.4" y="245.5" width="1159" height="24.65" shape-rendering="crispEdges"/><rect fill="#1a1e16" x="1427.4" y="245.5" width="24.4" height="24.65" shape-rendering="crispEdges"/><rect fill="#594a2c" x="1451.8" y="245.5" width="12.2" height="24.65" shape-rendering="crispEdges"/><rect fill="#1a1e16" x="0" y="269.9" width="24.4" height="24.65" shape-rendering="crispEdges"/><rect fill="#1a1e16" x="24.4" y="269.9" width="732" height="24.65" shape-rendering="crispEdges"/><rect fill="#1a1e16" x="756.4" y="269.9" width="671" height="24.65" shape-rendering="crispEdges"/><rect fill="#1a1e16" x="1427.4" y="269.9" width="24.4" height="24.65" shape-rendering="crispEdges"/><rect fill="#594a2c" x="1451.8" y="269.9" width="12.2" height="24.65" shape-rendering="crispEdges"/><rect fill="#1a1e16" x="0" y="294.3" width="24.4" height="24.65" shape-rendering="crispEdges"/><rect fill="#1a1e16" x="24.4" y="294.3" width="158.6" height="24.65" shape-rendering="crispEdges"/><rect fill="#1a1e16" x="183" y="294.3" width="1244.4" height="24.65" shape-rendering="crispEdges"/><rect fill="#1a1e16" x="1427.4" y="294.3" width="24.4" height="24.65" shape-rendering="crispEdges"/><rect fill="#594a2c" x="1451.8" y="294.3" width="12.2" height="24.65" shape-rendering="crispEdges"/><rect fill="#1a1e16" x="0" y="318.7" width="24.4" height="24.65" shape-rendering="crispEdges"/><rect fill="#1a1e16" x="24.4" y="318.7" width="585.6" height="24.65" shape-rendering="crispEdges"/><rect fill="#1a1e16" x="610" y="318.7" width="817.4" height="24.65" shape-rendering="crispEdges"/><rect fill="#1a1e16" x="1427.4" y="318.7" width="24.4" height="24.65" shape-rendering="crispEdges"/><rect fill="#594a2c" x="1451.8" y="318.7" width="12.2" height="24.65" shape-rendering="crispEdges"/><rect fill="#1a1e16" x="0" y="343.1" width="24.4" height="24.65" shape-rendering="crispEdges"/><rect fill="#1a1e16" x="24.4" y="343.1" width="329.4" height="24.65" shape-rendering="crispEdges"/><rect fill="#1a1e16" x="353.8" y="343.1" width="1073.6" height="24.65" shape-rendering="crispEdges"/><rect fill="#1a1e16" x="1427.4" y="343.1" width="24.4" height="24.65" shape-rendering="crispEdges"/><rect fill="#594a2c" x="1451.8" y="343.1" width="12.2" height="24.65" shape-rendering="crispEdges"/><rect fill="#1a1e16" x="0" y="367.5" width="24.4" height="24.65" shape-rendering="crispEdges"/><rect fill="#1a1e16" x="24.4" y="367.5" width="488" height="24.65" shape-rendering="crispEdges"/><rect fill="#1a1e16" x="512.4" y="367.5" width="915" height="24.65" shape-rendering="crispEdges"/><rect fill="#1a1e16" x="1427.4" y="367.5" width="24.4" height="24.65" shape-rendering="crispEdges"/><rect fill="#594a2c" x="1451.8" y="367.5" width="12.2" height="24.65" shape-rendering="crispEdges"/><rect fill="#1a1e16" x="0" y="391.9" width="24.4" height="24.65" shape-rendering="crispEdges"/><rect fill="#1a1e16" x="24.4" y="391.9" width="414.8" height="24.65" shape-rendering="crispEdges"/><rect fill="#1a1e16" x="439.2" y="391.9" width="988.2" height="24.65" shape-rendering="crispEdges"/><rect fill="#1a1e16" x="1427.4" y="391.9" width="24.4" height="24.65" shape-rendering="crispEdges"/><rect fill="#594a2c" x="1451.8" y="391.9" width="12.2" height="24.65" shape-rendering="crispEdges"/><rect fill="#1a1e16" x="0" y="416.3" width="24.4" height="24.65" shape-rendering="crispEdges"/><rect fill="#1a1e16" x="24.4" y="416.3" width="597.8" height="24.65" shape-rendering="crispEdges"/><rect fill="#1a1e16" x="622.2" y="416.3" width="805.2" height="24.65" shape-rendering="crispEdges"/><rect fill="#1a1e16" x="1427.4" y="416.3" width="24.4" height="24.65" shape-rendering="crispEdges"/><rect fill="#594a2c" x="1451.8" y="416.3" width="12.2" height="24.65" shape-rendering="crispEdges"/><rect fill="#1a1e16" x="0" y="440.7" width="24.4" height="24.65" shape-rendering="crispEdges"/><rect fill="#1a1e16" x="24.4" y="440.7" width="244" height="24.65" shape-rendering="crispEdges"/><rect fill="#1a1e16" x="268.4" y="440.7" width="1159" height="24.65" shape-rendering="crispEdges"/><rect fill="#1a1e16" x="1427.4" y="440.7" width="24.4" height="24.65" shape-rendering="crispEdges"/><rect fill="#594a2c" x="1451.8" y="440.7" width="12.2" height="24.65" shape-rendering="crispEdges"/><rect fill="#1a1e16" x="0" y="465.1" width="24.4" height="24.65" shape-rendering="crispEdges"/><rect fill="#1a1e16" x="24.4" y="465.1" width="378.2" height="24.65" shape-rendering="crispEdges"/><rect fill="#1a1e16" x="402.6" y="465.1" width="1024.8" height="24.65" shape-rendering="crispEdges"/><rect fill="#1a1e16" x="1427.4" y="465.1" width="24.4" height="24.65" shape-rendering="crispEdges"/><rect fill="#594a2c" x="1451.8" y="465.1" width="12.2" height="24.65" shape-rendering="crispEdges"/><rect fill="#1a1e16" x="0" y="489.5" width="24.4" height="24.65" shape-rendering="crispEdges"/><rect fill="#1a1e16" x="24.4" y="489.5" width="207.4" height="24.65" shape-rendering="crispEdges"/><rect fill="#1a1e16" x="231.8" y="489.5" width="1195.6" height="24.65" shape-rendering="crispEdges"/><rect fill="#1a1e16" x="1427.4" y="489.5" width="24.4" height="24.65" shape-rendering="crispEdges"/><rect fill="#594a2c" x="1451.8" y="489.5" width="12.2" height="24.65" shape-rendering="crispEdges"/><rect fill="#1a1e16" x="0" y="513.9" width="24.4" height="24.65" shape-rendering="crispEdges"/><rect fill="#1a1e16" x="24.4" y="513.9" width="817.4" height="24.65" shape-rendering="crispEdges"/><rect fill="#1a1e16" x="841.8" y="513.9" width="585.6" height="24.65" shape-rendering="crispEdges"/><rect fill="#1a1e16" x="1427.4" y="513.9" width="24.4" height="24.65" shape-rendering="crispEdges"/><rect fill="#000402" x="1451.8" y="513.9" width="12.2" height="24.65" shape-rendering="crispEdges"/><rect fill="#1a1e16" x="0" y="538.3" width="24.4" height="24.65" shape-rendering="crispEdges"/><rect fill="#1a1e16" x="24.4" y="538.3" width="231.8" height="24.65" shape-rendering="crispEdges"/><rect fill="#1a1e16" x="256.2" y="538.3" width="1171.2" height="24.65" shape-rendering="crispEdges"/><rect fill="#1a1e16" x="1427.4" y="538.3" width="24.4" height="24.65" shape-rendering="crispEdges"/><rect fill="#000402" x="1451.8" y="538.3" width="12.2" height="24.65" shape-rendering="crispEdges"/><rect fill="#1a1e16" x="0" y="562.7" width="24.4" height="24.65" shape-rendering="crispEdges"/><rect fill="#1a1e16" x="24.4" y="562.7" width="536.8" height="24.65" shape-rendering="crispEdges"/><rect fill="#1a1e16" x="561.2" y="562.7" width="866.2" height="24.65" shape-rendering="crispEdges"/><rect fill="#1a1e16" x="1427.4" y="562.7" width="24.4" height="24.65" shape-rendering="crispEdges"/><rect fill="#000402" x="1451.8" y="562.7" width="12.2" height="24.65" shape-rendering="crispEdges"/><rect fill="#1a1e16" x="0" y="587.1" width="24.4" height="24.65" shape-rendering="crispEdges"/><rect fill="#1a1e16" x="24.4" y="587.1" width="231.8" height="24.65" shape-rendering="crispEdges"/><rect fill="#1a1e16" x="256.2" y="587.1" width="1171.2" height="24.65" shape-rendering="crispEdges"/><rect fill="#1a1e16" x="1427.4" y="587.1" width="24.4" height="24.65" shape-rendering="crispEdges"/><rect fill="#000402" x="1451.8" y="587.1" width="12.2" height="24.65" shape-rendering="crispEdges"/><rect fill="#1a1e16" x="0" y="611.5" width="24.4" height="24.65" shape-rendering="crispEdges"/><rect fill="#1a1e16" x="24.4" y="611.5" width="488" height="24.65" shape-rendering="crispEdges"/><rect fill="#1a1e16" x="512.4" y="611.5" width="915" height="24.65" shape-rendering="crispEdges"/><rect fill="#1a1e16" x="1427.4" y="611.5" width="24.4" height="24.65" shape-rendering="crispEdges"/><rect fill="#000402" x="1451.8" y="611.5" width="12.2" height="24.65" shape-rendering="crispEdges"/><rect fill="#1a1e16" x="0" y="635.9" width="24.4" height="24.65" shape-rendering="crispEdges"/><rect fill="#1a1e16" x="24.4" y="635.9" width="170.8" height="24.65" shape-rendering="crispEdges"/><rect fill="#1a1e16" x="195.2" y="635.9" width="1232.2" height="24.65" shape-rendering="crispEdges"/><rect fill="#1a1e16" x="1427.4" y="635.9" width="24.4" height="24.65" shape-rendering="crispEdges"/><rect fill="#000402" x="1451.8" y="635.9" width="12.2" height="24.65" shape-rendering="crispEdges"/><rect fill="#1a1e16" x="0" y="660.3" width="24.4" height="24.65" shape-rendering="crispEdges"/><rect fill="#1a1e16" x="24.4" y="660.3" width="256.2" height="24.65" shape-rendering="crispEdges"/><rect fill="#1a1e16" x="280.6" y="660.3" width="1146.8" height="24.65" shape-rendering="crispEdges"/><rect fill="#1a1e16" x="1427.4" y="660.3" width="24.4" height="24.65" shape-rendering="crispEdges"/><rect fill="#000402" x="1451.8" y="660.3" width="12.2" height="24.65" shape-rendering="crispEdges"/><rect fill="#1a1e16" x="0" y="684.7" width="1464" height="24.65" shape-rendering="crispEdges"/><rect fill="#171918" x="0" y="709.1" width="256.2" height="24.65" shape-rendering="crispEdges"/><rect fill="#171918" x="256.2" y="709.1" width="12.2" height="24.65" shape-rendering="crispEdges"/><rect fill="#171918" x="268.4" y="709.1" width="24.4" height="24.65" shape-rendering="crispEdges"/><rect fill="#171918" x="292.8" y="709.1" width="97.6" height="24.65" shape-rendering="crispEdges"/><rect fill="#171918" x="390.4" y="709.1" width="170.8" height="24.65" shape-rendering="crispEdges"/><rect fill="#171918" x="561.2" y="709.1" width="134.2" height="24.65" shape-rendering="crispEdges"/><rect fill="#171918" x="695.4" y="709.1" width="170.8" height="24.65" shape-rendering="crispEdges"/><rect fill="#67573a" x="866.2" y="709.1" width="219.6" height="24.65" shape-rendering="crispEdges"/><rect fill="#171918" x="1085.8" y="709.1" width="24.4" height="24.65" shape-rendering="crispEdges"/><rect fill="#1a1d1a" x="1110.2" y="709.1" width="12.2" height="24.65" shape-rendering="crispEdges"/><rect fill="#1a1d1a" x="1122.4" y="709.1" width="341.6" height="24.65" shape-rendering="crispEdges"/><rect fill="#171918" x="0" y="733.5" width="256.2" height="24.65" shape-rendering="crispEdges"/><rect fill="#171918" x="256.2" y="733.5" width="12.2" height="24.65" shape-rendering="crispEdges"/><rect fill="#171918" x="268.4" y="733.5" width="841.8" height="24.65" shape-rendering="crispEdges"/><rect fill="#1a1d1a" x="1110.2" y="733.5" width="12.2" height="24.65" shape-rendering="crispEdges"/><rect fill="#1a1d1a" x="1122.4" y="733.5" width="341.6" height="24.65" shape-rendering="crispEdges"/><rect fill="#1a1d1a" x="0" y="757.9" width="24.4" height="24.65" shape-rendering="crispEdges"/><rect fill="#1a1d1a" x="24.4" y="757.9" width="134.2" height="24.65" shape-rendering="crispEdges"/><rect fill="#1a1d1a" x="158.6" y="757.9" width="12.2" height="24.65" shape-rendering="crispEdges"/><rect fill="#1a1d1a" x="170.8" y="757.9" width="24.4" height="24.65" shape-rendering="crispEdges"/><rect fill="#1a1d1a" x="195.2" y="757.9" width="97.6" height="24.65" shape-rendering="crispEdges"/><rect fill="#1a1d1a" x="292.8" y="757.9" width="1171.2" height="24.65" shape-rendering="crispEdges"/>
    <g class="terminal-matrix">
    <text class="terminal-r2" x="1464" y="20" textLength="12.2" clip-path="url(#terminal-line-0)">
</text><text class="terminal-r3" x="24.4" y="44.4" textLength="109.8" clip-path="url(#terminal-line-1)">ETHERNITY</text><text class="terminal-r4" x="195.2" y="44.4" textLength="280.6" clip-path="url(#terminal-line-1)">Paper&#160;backup&#160;&amp;&#160;recovery</text><text class="terminal-r4" x="1366.4" y="44.4" textLength="73.2" clip-path="url(#terminal-line-1)">v1.2.0</text><text class="terminal-r2" x="1464" y="44.4" textLength="12.2" clip-path="url(#terminal-line-1)">
</text><text class="terminal-r2" x="1464" y="68.8" textLength="12.2" clip-path="url(#terminal-line-2)">
</text><text class="terminal-r5" x="0" y="93.2" textLength="1464" clip-path="url(#terminal-line-3)">▔▔▔▔▔▔▔▔▔▔▔▔▔▔▔▔▔▔▔▔▔▔▔▔▔▔▔▔▔▔▔▔▔▔▔▔▔▔▔▔▔▔▔▔▔▔▔▔▔▔▔▔▔▔▔▔▔▔▔▔▔▔▔▔▔▔▔▔▔▔▔▔▔▔▔▔▔▔▔▔▔▔▔▔▔▔▔▔▔▔▔▔▔▔▔▔▔▔▔▔▔▔▔▔▔▔▔▔▔▔▔▔▔▔▔▔▔▔▔▔</text><text class="terminal-r2" x="1464" y="93.2" textLength="12.2" clip-path="url(#terminal-line-3)">
</text><text class="terminal-r2" x="1464" y="117.6" textLength="12.2" clip-path="url(#terminal-line-4)">
</text><text class="terminal-r6" x="24.4" y="142" textLength="12.2" clip-path="url(#terminal-line-5)">🔎</text><text class="terminal-r7" x="61" y="142" textLength="12.2" clip-path="url(#terminal-line-5)">S</text><text class="terminal-r8" x="73.2" y="142" textLength="231.8" clip-path="url(#terminal-line-5)">earch&#160;for&#160;commands…</text><text class="terminal-r2" x="1464" y="142" textLength="12.2" clip-path="url(#terminal-line-5)">
</text><text class="terminal-r2" x="1464" y="166.4" textLength="12.2" clip-path="url(#terminal-line-6)">
</text><text class="terminal-r2" x="1464" y="190.8" textLength="12.2" clip-path="url(#terminal-line-7)">
</text><text class="terminal-r10" x="24.4" y="215.2" textLength="231.8" clip-path="url(#terminal-line-8)">Add&#160;files&#160;to&#160;backup</text><text class="terminal-r2" x="1464" y="215.2" textLength="12.2" clip-path="url(#terminal-line-8)">
</text><text class="terminal-r12" x="24.4" y="239.6" textLength="512.4" clip-path="url(#terminal-line-9)">Add&#160;or&#160;replace&#160;files&#160;in&#160;an&#160;existing&#160;backup</text><text class="terminal-r2" x="1464" y="239.6" textLength="12.2" clip-path="url(#terminal-line-9)">
</text><text class="terminal-r10" x="24.4" y="264" textLength="244" clip-path="url(#terminal-line-10)">Change&#160;unlock&#160;method</text><text class="terminal-r2" x="1464" y="264" textLength="12.2" clip-path="url(#terminal-line-10)">
</text><text class="terminal-r13" x="24.4" y="288.4" textLength="732" clip-path="url(#terminal-line-11)">Use&#160;a&#160;passphrase,&#160;recovery&#160;sheets,&#160;or&#160;recovery&#160;payload&#160;files</text><text class="terminal-r2" x="1464" y="288.4" textLength="12.2" clip-path="url(#terminal-line-11)">
</text><text class="terminal-r10" x="24.4" y="312.8" textLength="158.6" clip-path="url(#terminal-line-12)">Create&#160;backup</text><text class="terminal-r2" x="1464" y="312.8" textLength="12.2" clip-path="url(#terminal-line-12)">
</text><text class="terminal-r13" x="24.4" y="337.2" textLength="585.6" clip-path="url(#terminal-line-13)">Create&#160;paper&#160;backup&#160;documents&#160;for&#160;selected&#160;files</text><text class="terminal-r2" x="1464" y="337.2" textLength="12.2" clip-path="url(#terminal-line-13)">
</text><text class="terminal-r10" x="24.4" y="361.6" textLength="329.4" clip-path="url(#terminal-line-14)">Create&#160;offline&#160;recovery&#160;kit</text><text class="terminal-r2" x="1464" y="361.6" textLength="12.2" clip-path="url(#terminal-line-14)">
</text><text class="terminal-r13" x="24.4" y="386" textLength="488" clip-path="url(#terminal-line-15)">Print&#160;the&#160;reusable&#160;offline&#160;recovery&#160;tool</text><text class="terminal-r2" x="1464" y="386" textLength="12.2" clip-path="url(#terminal-line-15)">
</text><text class="terminal-r10" x="24.4" y="410.4" textLength="414.8" clip-path="url(#terminal-line-16)">Create&#160;replacement&#160;recovery&#160;sheets</text><text class="terminal-r2" x="1464" y="410.4" textLength="12.2" clip-path="url(#terminal-line-16)">
</text><text class="terminal-r13" x="24.4" y="434.8" textLength="597.8" clip-path="url(#terminal-line-17)">Create&#160;new&#160;recovery&#160;sheets&#160;for&#160;an&#160;existing&#160;backup</text><text class="terminal-r2" x="1464" y="434.8" textLength="12.2" clip-path="url(#terminal-line-17)">
</text><text class="terminal-r10" x="24.4" y="459.2" textLength="244" clip-path="url(#terminal-line-18)">Help&#160;for&#160;this&#160;screen</text><text class="terminal-r2" x="1464" y="459.2" textLength="12.2" clip-path="url(#terminal-line-18)">
</text><text class="terminal-r13" x="24.4" y="483.6" textLength="378.2" clip-path="url(#terminal-line-19)">Guidance&#160;and&#160;keyboard&#160;shortcuts</text><text class="terminal-r2" x="1464" y="483.6" textLength="12.2" clip-path="url(#terminal-line-19)">
</text><text class="terminal-r10" x="24.4" y="508" textLength="207.4" clip-path="url(#terminal-line-20)">Load&#160;backup&#160;pages</text><text class="terminal-r14" x="1451.8" y="508" textLength="12.2" clip-path="url(#terminal-line-20)">▄</text><text class="terminal-r2" x="1464" y="508" textLength="12.2" clip-path="url(#terminal-line-20)">
</text><text class="terminal-r13" x="24.4" y="532.4" textLength="817.4" clip-path="url(#terminal-line-21)">Use&#160;a&#160;backup&#160;folder,&#160;or&#160;scanned&#160;pages&#160;from&#160;PDFs,&#160;images,&#160;or&#160;folders</text><text class="terminal-r2" x="1464" y="532.4" textLength="12.2" clip-path="url(#terminal-line-21)">
</text><text class="terminal-r10" x="24.4" y="556.8" textLength="231.8" clip-path="url(#terminal-line-22)">Load&#160;backup&#160;payload</text><text class="terminal-r2" x="1464" y="556.8" textLength="12.2" clip-path="url(#terminal-line-22)">
</text><text class="terminal-r13" x="24.4" y="581.2" textLength="536.8" clip-path="url(#terminal-line-23)">Use&#160;a&#160;payload&#160;exported&#160;from&#160;backup&#160;documents</text><text class="terminal-r2" x="1464" y="581.2" textLength="12.2" clip-path="url(#terminal-line-23)">
</text><text class="terminal-r10" x="24.4" y="605.6" textLength="231.8" clip-path="url(#terminal-line-24)">Paste&#160;recovery&#160;text</text><text class="terminal-r2" x="1464" y="605.6" textLength="12.2" clip-path="url(#terminal-line-24)">
</text><text class="terminal-r13" x="24.4" y="630" textLength="488" clip-path="url(#terminal-line-25)">Use&#160;the&#160;MAIN&#160;block&#160;from&#160;a&#160;recovery&#160;sheet</text><text class="terminal-r2" x="1464" y="630" textLength="12.2" clip-path="url(#terminal-line-25)">
</text><text class="terminal-r10" x="24.4" y="654.4" textLength="170.8" clip-path="url(#terminal-line-26)">Quit&#160;Ethernity</text><text class="terminal-r2" x="1464" y="654.4" textLength="12.2" clip-path="url(#terminal-line-26)">
</text><text class="terminal-r13" x="24.4" y="678.8" textLength="256.2" clip-path="url(#terminal-line-27)">Close&#160;the&#160;application</text><text class="terminal-r2" x="1464" y="678.8" textLength="12.2" clip-path="url(#terminal-line-27)">
</text><text class="terminal-r6" x="0" y="703.2" textLength="1464" clip-path="url(#terminal-line-28)">▁▁▁▁▁▁▁▁▁▁▁▁▁▁▁▁▁▁▁▁▁▁▁▁▁▁▁▁▁▁▁▁▁▁▁▁▁▁▁▁▁▁▁▁▁▁▁▁▁▁▁▁▁▁▁▁▁▁▁▁▁▁▁▁▁▁▁▁▁▁▁▁▁▁▁▁▁▁▁▁▁▁▁▁▁▁▁▁▁▁▁▁▁▁▁▁▁▁▁▁▁▁▁▁▁▁▁▁▁▁▁▁▁▁▁▁▁▁▁▁</text><text class="terminal-r2" x="1464" y="703.2" textLength="12.2" clip-path="url(#terminal-line-28)">
</text><text class="terminal-r15" x="256.2" y="727.6" textLength="12.2" clip-path="url(#terminal-line-29)">│</text><text class="terminal-r15" x="1110.2" y="727.6" textLength="12.2" clip-path="url(#terminal-line-29)">│</text><text class="terminal-r2" x="1464" y="727.6" textLength="12.2" clip-path="url(#terminal-line-29)">
</text><text class="terminal-r15" x="256.2" y="752" textLength="12.2" clip-path="url(#terminal-line-30)">│</text><text class="terminal-r15" x="1110.2" y="752" textLength="12.2" clip-path="url(#terminal-line-30)">│</text><text class="terminal-r2" x="1464" y="752" textLength="12.2" clip-path="url(#terminal-line-30)">
</text><text class="terminal-r18" x="0" y="776.4" textLength="24.4" clip-path="url(#terminal-line-31)">^b</text><text class="terminal-r19" x="24.4" y="776.4" textLength="134.2" clip-path="url(#terminal-line-31)">&#160;Navigation</text><text class="terminal-r20" x="170.8" y="776.4" textLength="24.4" clip-path="url(#terminal-line-31)">^p</text><text class="terminal-r4" x="195.2" y="776.4" textLength="97.6" clip-path="url(#terminal-line-31)">&#160;Actions</text>
    </g>
    </g>
</svg>
