<svg class="rich-terminal" viewBox="0 0 994 635.5999999999999" xmlns="http://www.w3.org/2000/svg">
    <!-- Generated with Rich https://www.textualize.io -->
    <style>

    @font-face {
        font-family: "Fira Code";
        src: local("FiraCode-Regular"),
                url("https://cdnjs.cloudflare.com/ajax/libs/firacode/6.2.0/woff2/FiraCode-Regular.woff2") format("woff2"),
                url("https://cdnjs.cloudflare.com/ajax/libs/firacode/6.2.0/woff/FiraCode-Regular.woff") format("woff");
        font-style: normal;
        font-weight: 400;
    }
    @font-face {
        font-family: "Fira Code";
        src: local("FiraCode-Bold"),
                url("https://cdnjs.cloudflare.com/ajax/libs/firacode/6.2.0/woff2/FiraCode-Bold.woff2") format("woff2"),
                url("https://cdnjs.cloudflare.com/ajax/libs/firacode/6.2.0/woff/FiraCode-Bold.woff") format("woff");
        font-style: bold;
        font-weight: 700;
    }

    .terminal-matrix {
        font-family: Fira Code, monospace;
        font-size: 20px;
        line-height: 24.4px;
        font-variant-east-asian: full-width;
    }

    .terminal-title {
        font-size: 18px;
        font-weight: bold;
        font-family: arial;
    }

    .terminal-r1 { fill: #3b3e34 }
.terminal-r2 { fill: #c5c8c6 }
.terminal-r3 { fill: #eae6da;font-weight: bold }
.terminal-r4 { fill: #efa06a }
.terminal-r5 { fill: #f0a06a;font-weight: bold }
.terminal-r6 { fill: #171918 }
.terminal-r7 { fill: #f0a06a }
.terminal-r8 { fill: #a7aa99 }
.terminal-r9 { fill: #eae6da }
.terminal-r10 { fill: #000402 }
.terminal-r11 { fill: #1c211a;font-weight: bold }
.terminal-r12 { fill: #e0b56d;font-weight: bold }
    </style>

    <defs>
    <clipPath id="terminal-clip-terminal">
      <rect x="0" y="0" width="975.0" height="584.5999999999999" />
    </clipPath>
    <clipPath id="terminal-line-0">
    <rect x="0" y="1.5" width="976" height="24.65"/>
            </clipPath>
<clipPath id="terminal-line-1">
    <rect x="0" y="25.9" width="976" height="24.65"/>
            </clipPath>
<clipPath id="terminal-line-2">
    <rect x="0" y="50.3" width="976" height="24.65"/>
            </clipPath>
<clipPath id="terminal-line-3">
    <rect x="0" y="74.7" width="976" height="24.65"/>
            </clipPath>
<clipPath id="terminal-line-4">
    <rect x="0" y="99.1" width="976" height="24.65"/>
            </clipPath>
<clipPath id="terminal-line-5">
    <rect x="0" y="123.5" width="976" height="24.65"/>
            </clipPath>
<clipPath id="terminal-line-6">
    <rect x="0" y="147.9" width="976" height="24.65"/>
            </clipPath>
<clipPath id="terminal-line-7">
    <rect x="0" y="172.3" width="976" height="24.65"/>
            </clipPath>
<clipPath id="terminal-line-8">
    <rect x="0" y="196.7" width="976" height="24.65"/>
            </clipPath>
<clipPath id="terminal-line-9">
    <rect x="0" y="221.1" width="976" height="24.65"/>
            </clipPath>
<clipPath id="terminal-line-10">
    <rect x="0" y="245.5" width="976" height="24.65"/>
            </clipPath>
<clipPath id="terminal-line-11">
    <rect x="0" y="269.9" width="976" height="24.65"/>
            </clipPath>
<clipPath id="terminal-line-12">
    <rect x="0" y="294.3" width="976" height="24.65"/>
            </clipPath>
<clipPath id="terminal-line-13">
    <rect x="0" y="318.7" width="976" height="24.65"/>
            </clipPath>
<clipPath id="terminal-line-14">
    <rect x="0" y="343.1" width="976" height="24.65"/>
            </clipPath>
<clipPath id="terminal-line-15">
    <rect x="0" y="367.5" width="976" height="24.65"/>
            </clipPath>
<clipPath id="terminal-line-16">
    <rect x="0" y="391.9" width="976" height="24.65"/>
            </clipPath>
<clipPath id="terminal-line-17">
    <rect x="0" y="416.3" width="976" height="24.65"/>
            </clipPath>
<clipPath id="terminal-line-18">
    <rect x="0" y="440.7" width="976" height="24.65"/>
            </clipPath>
<clipPath id="terminal-line-19">
    <rect x="0" y="465.1" width="976" height="24.65"/>
            </clipPath>
<clipPath id="terminal-line-20">
    <rect x="0" y="489.5" width="976" height="24.65"/>
            </clipPath>
<clipPath id="terminal-line-21">
    <rect x="0" y="513.9" width="976" height="24.65"/>
            </clipPath>
<clipPath id="terminal-line-22">
    <rect x="0" y="538.3" width="976" height="24.65"/>
            </clipPath>
    </defs>

    <rect fill="#292929" stroke="rgba(255,255,255,0.35)" stroke-width="1" x="1" y="1" width="992" height="633.6" rx="8"/><text class="terminal-title" fill="#c5c8c6" text-anchor="middle" x="496" y="27">Ethernity&#160;-&#160;add-files-review&#160;-&#160;80x24</text>
            <g transform="translate(26,22)">
            <circle cx="0" cy="0" r="7" fill="#ff5f57"/>
            <circle cx="22" cy="0" r="7" fill="#febc2e"/>
            <circle cx="44" cy="0" r="7" fill="#28c840"/>
            </g>

    <g transform="translate(9, 41)" clip-path="url(#terminal-clip-terminal)">
    <rect fill="#171918" x="0" y="1.5" width="976" height="24.65" shape-rendering="crispEdges"/><rect fill="#171918" x="0" y="25.9" width="12.2" height="24.65" shape-rendering="crispEdges"/><rect fill="#171918" x="12.2" y="25.9" width="24.4" height="24.65" shape-rendering="crispEdges"/><rect fill="#171918" x="36.6" y="25.9" width="244" height="24.65" shape-rendering="crispEdges"/><rect fill="#171918" x="280.6" y="25.9" width="683.2" height="24.65" shape-rendering="crispEdges"/><rect fill="#171918" x="963.8" y="25.9" width="12.2" height="24.65" shape-rendering="crispEdges"/><rect fill="#171918" x="0" y="50.3" width="12.2" height="24.65" shape-rendering="crispEdges"/><rect fill="#171918" x="12.2" y="50.3" width="12.2" height="24.65" shape-rendering="crispEdges"/><rect fill="#171918" x="24.4" y="50.3" width="927.2" height="24.65" shape-rendering="crispEdges"/><rect fill="#171918" x="951.6" y="50.3" width="12.2" height="24.65" shape-rendering="crispEdges"/><rect fill="#171918" x="963.8" y="50.3" width="12.2" height="24.65" shape-rendering="crispEdges"/><rect fill="#171918" x="0" y="74.7" width="12.2" height="24.65" shape-rendering="crispEdges"/><rect fill="#171918" x="12.2" y="74.7" width="12.2" height="24.65" shape-rendering="crispEdges"/><rect fill="#171918" x="24.4" y="74.7" width="12.2" height="24.65" shape-rendering="crispEdges"/><rect fill="#171918" x="36.6" y="74.7" width="12.2" height="24.65" shape-rendering="crispEdges"/><rect fill="#171918" x="48.8" y="74.7" width="85.4" height="24.65" shape-rendering="crispEdges"/><rect fill="#171918" x="134.2" y="74.7" width="805.2" height="24.65" shape-rendering="crispEdges"/><rect fill="#594a2c" x="939.4" y="74.7" width="12.2" height="24.65" shape-rendering="crispEdges"/><rect fill="#171918" x="951.6" y="74.7" width="12.2" height="24.65" shape-rendering="crispEdges"/><rect fill="#171918" x="963.8" y="74.7" width="12.2" height="24.65" shape-rendering="crispEdges"/><rect fill="#171918" x="0" y="99.1" width="12.2" height="24.65" shape-rendering="crispEdges"/><rect fill="#171918" x="12.2" y="99.1" width="12.2" height="24.65" shape-rendering="crispEdges"/><rect fill="#171918" x="24.4" y="99.1" width="12.2" height="24.65" shape-rendering="crispEdges"/><rect fill="#171918" x="36.6" y="99.1" width="902.8" height="24.65" shape-rendering="crispEdges"/><rect fill="#594a2c" x="939.4" y="99.1" width="12.2" height="24.65" shape-rendering="crispEdges"/><rect fill="#171918" x="951.6" y="99.1" width="12.2" height="24.65" shape-rendering="crispEdges"/><rect fill="#171918" x="963.8" y="99.1" width="12.2" height="24.65" shape-rendering="crispEdges"/><rect fill="#171918" x="0" y="123.5" width="12.2" height="24.65" shape-rendering="crispEdges"/><rect fill="#171918" x="12.2" y="123.5" width="12.2" height="24.65" shape-rendering="crispEdges"/><rect fill="#171918" x="24.4" y="123.5" width="12.2" height="24.65" shape-rendering="crispEdges"/><rect fill="#171918" x="36.6" y="123.5" width="12.2" height="24.65" shape-rendering="crispEdges"/><rect fill="#171918" x="48.8" y="123.5" width="646.6" height="24.65" shape-rendering="crispEdges"/><rect fill="#171918" x="695.4" y="123.5" width="244" height="24.65" shape-rendering="crispEdges"/><rect fill="#594a2c" x="939.4" y="123.5" width="12.2" height="24.65" shape-rendering="crispEdges"/><rect fill="#171918" x="951.6" y="123.5" width="12.2" height="24.65" shape-rendering="crispEdges"/><rect fill="#171918" x="963.8" y="123.5" width="12.2" height="24.65" shape-rendering="crispEdges"/><rect fill="#171918" x="0" y="147.9" width="12.2" height="24.65" shape-rendering="crispEdges"/><rect fill="#171918" x="12.2" y="147.9" width="12.2" height="24.65" shape-rendering="crispEdges"/><rect fill="#171918" x="24.4" y="147.9" width="85.4" height="24.65" shape-rendering="crispEdges"/><rect fill="#171918" x="109.8" y="147.9" width="829.6" height="24.65" shape-rendering="crispEdges"/><rect fill="#594a2c" x="939.4" y="147.9" width="12.2" height="24.65" shape-rendering="crispEdges"/><rect fill="#171918" x="951.6" y="147.9" width="12.2" height="24.65" shape-rendering="crispEdges"/><rect fill="#171918" x="963.8" y="147.9" width="12.2" height="24.65" shape-rendering="crispEdges"/><rect fill="#171918" x="0" y="172.3" width="12.2" height="24.65" shape-rendering="crispEdges"/><rect fill="#171918" x="12.2" y="172.3" width="12.2" height="24.65" shape-rendering="crispEdges"/><rect fill="#171918" x="24.4" y="172.3" width="73.2" height="24.65" shape-rendering="crispEdges"/><rect fill="#171918" x="97.6" y="172.3" width="146.4" height="24.65" shape-rendering="crispEdges"/><rect fill="#171918" x="244" y="172.3" width="24.4" height="24.65" shape-rendering="crispEdges"/><rect fill="#171918" x="268.4" y="172.3" width="195.2" height="24.65" shape-rendering="crispEdges"/><rect fill="#171918" x="463.6" y="172.3" width="329.4" height="24.65" shape-rendering="crispEdges"/><rect fill="#20231f" x="793" y="172.3" width="36.6" height="24.65" shape-rendering="crispEdges"/><rect fill="#20231f" x="829.6" y="172.3" width="48.8" height="24.65" shape-rendering="crispEdges"/><rect fill="#20231f" x="878.4" y="172.3" width="36.6" height="24.65" shape-rendering="crispEdges"/><rect fill="#171918" x="915" y="172.3" width="24.4" height="24.65" shape-rendering="crispEdges"/><rect fill="#594a2c" x="939.4" y="172.3" width="12.2" height="24.65" shape-rendering="crispEdges"/><rect fill="#171918" x="951.6" y="172.3" width="12.2" height="24.65" shape-rendering="crispEdges"/><rect fill="#171918" x="963.8" y="172.3" width="12.2" height="24.65" shape-rendering="crispEdges"/><rect fill="#171918" x="0" y="196.7" width="12.2" height="24.65" shape-rendering="crispEdges"/><rect fill="#171918" x="12.2" y="196.7" width="927.2" height="24.65" shape-rendering="crispEdges"/><rect fill="#594a2c" x="939.4" y="196.7" width="12.2" height="24.65" shape-rendering="crispEdges"/><rect fill="#171918" x="951.6" y="196.7" width="12.2" height="24.65" shape-rendering="crispEdges"/><rect fill="#171918" x="963.8" y="196.7" width="12.2" height="24.65" shape-rendering="crispEdges"/><rect fill="#171918" x="0" y="221.1" width="12.2" height="24.65" shape-rendering="crispEdges"/><rect fill="#171918" x="12.2" y="221.1" width="12.2" height="24.65" shape-rendering="crispEdges"/><rect fill="#171918" x="24.4" y="221.1" width="85.4" height="24.65" shape-rendering="crispEdges"/><rect fill="#171918" x="109.8" y="221.1" width="134.2" height="24.65" shape-rendering="crispEdges"/><rect fill="#171918" x="244" y="221.1" width="24.4" height="24.65" shape-rendering="crispEdges"/><rect fill="#171918" x="268.4" y="221.1" width="414.8" height="24.65" shape-rendering="crispEdges"/><rect fill="#171918" x="683.2" y="221.1" width="109.8" height="24.65" shape-rendering="crispEdges"/><rect fill="#20231f" x="793" y="221.1" width="36.6" height="24.65" shape-rendering="crispEdges"/><rect fill="#20231f" x="829.6" y="221.1" width="48.8" height="24.65" shape-rendering="crispEdges"/><rect fill="#20231f" x="878.4" y="221.1" width="36.6" height="24.65" shape-rendering="crispEdges"/><rect fill="#171918" x="915" y="221.1" width="24.4" height="24.65" shape-rendering="crispEdges"/><rect fill="#594a2c" x="939.4" y="221.1" width="12.2" height="24.65" shape-rendering="crispEdges"/><rect fill="#171918" x="951.6" y="221.1" width="12.2" height="24.65" shape-rendering="crispEdges"/><rect fill="#171918" x="963.8" y="221.1" width="12.2" height="24.65" shape-rendering="crispEdges"/><rect fill="#171918" x="0" y="245.5" width="12.2" height="24.65" shape-rendering="crispEdges"/><rect fill="#171918" x="12.2" y="245.5" width="927.2" height="24.65" shape-rendering="crispEdges"/><rect fill="#594a2c" x="939.4" y="245.5" width="12.2" height="24.65" shape-rendering="crispEdges"/><rect fill="#171918" x="951.6" y="245.5" width="12.2" height="24.65" shape-rendering="crispEdges"/><rect fill="#171918" x="963.8" y="245.5" width="12.2" height="24.65" shape-rendering="crispEdges"/><rect fill="#171918" x="0" y="269.9" width="12.2" height="24.65" shape-rendering="crispEdges"/><rect fill="#171918" x="12.2" y="269.9" width="12.2" height="24.65" shape-rendering="crispEdges"/><rect fill="#171918" x="24.4" y="269.9" width="170.8" height="24.65" shape-rendering="crispEdges"/><rect fill="#171918" x="195.2" y="269.9" width="48.8" height="24.65" shape-rendering="crispEdges"/><rect fill="#171918" x="244" y="269.9" width="24.4" height="24.65" shape-rendering="crispEdges"/><rect fill="#171918" x="268.4" y="269.9" width="366" height="24.65" shape-rendering="crispEdges"/><rect fill="#171918" x="634.4" y="269.9" width="158.6" height="24.65" shape-rendering="crispEdges"/><rect fill="#20231f" x="793" y="269.9" width="36.6" height="24.65" shape-rendering="crispEdges"/><rect fill="#20231f" x="829.6" y="269.9" width="48.8" height="24.65" shape-rendering="crispEdges"/><rect fill="#20231f" x="878.4" y="269.9" width="36.6" height="24.65" shape-rendering="crispEdges"/><rect fill="#171918" x="915" y="269.9" width="24.4" height="24.65" shape-rendering="crispEdges"/><rect fill="#594a2c" x="939.4" y="269.9" width="12.2" height="24.65" shape-rendering="crispEdges"/><rect fill="#171918" x="951.6" y="269.9" width="12.2" height="24.65" shape-rendering="crispEdges"/><rect fill="#171918" x="963.8" y="269.9" width="12.2" height="24.65" shape-rendering="crispEdges"/><rect fill="#171918" x="0" y="294.3" width="12.2" height="24.65" shape-rendering="crispEdges"/><rect fill="#171918" x="12.2" y="294.3" width="927.2" height="24.65" shape-rendering="crispEdges"/><rect fill="#594a2c" x="939.4" y="294.3" width="12.2" height="24.65" shape-rendering="crispEdges"/><rect fill="#171918" x="951.6" y="294.3" width="12.2" height="24.65" shape-rendering="crispEdges"/><rect fill="#171918" x="963.8" y="294.3" width="12.2" height="24.65" shape-rendering="crispEdges"/><rect fill="#171918" x="0" y="318.7" width="12.2" height="24.65" shape-rendering="crispEdges"/><rect fill="#171918" x="12.2" y="318.7" width="12.2" height="24.65" shape-rendering="crispEdges"/><rect fill="#171918" x="24.4" y="318.7" width="73.2" height="24.65" shape-rendering="crispEdges"/><rect fill="#171918" x="97.6" y="318.7" width="146.4" height="24.65" shape-rendering="crispEdges"/><rect fill="#171918" x="244" y="318.7" width="24.4" height="24.65" shape-rendering="crispEdges"/><rect fill="#171918" x="268.4" y="318.7" width="122" height="24.65" shape-rendering="crispEdges"/><rect fill="#171918" x="390.4" y="318.7" width="402.6" height="24.65" shape-rendering="crispEdges"/><rect fill="#20231f" x="793" y="318.7" width="36.6" height="24.65" shape-rendering="crispEdges"/><rect fill="#20231f" x="829.6" y="318.7" width="48.8" height="24.65" shape-rendering="crispEdges"/><rect fill="#20231f" x="878.4" y="318.7" width="36.6" height="24.65" shape-rendering="crispEdges"/><rect fill="#171918" x="915" y="318.7" width="24.4" height="24.65" shape-rendering="crispEdges"/><rect fill="#594a2c" x="939.4" y="318.7" width="12.2" height="24.65" shape-rendering="crispEdges"/><rect fill="#171918" x="951.6" y="318.7" width="12.2" height="24.65" shape-rendering="crispEdges"/><rect fill="#171918" x="963.8" y="318.7" width="12.2" height="24.65" shape-rendering="crispEdges"/><rect fill="#171918" x="0" y="343.1" width="12.2" height="24.65" shape-rendering="crispEdges"/><rect fill="#171918" x="12.2" y="343.1" width="927.2" height="24.65" shape-rendering="crispEdges"/><rect fill="#594a2c" x="939.4" y="343.1" width="12.2" height="24.65" shape-rendering="crispEdges"/><rect fill="#171918" x="951.6" y="343.1" width="12.2" height="24.65" shape-rendering="crispEdges"/><rect fill="#171918" x="963.8" y="343.1" width="12.2" height="24.65" shape-rendering="crispEdges"/><rect fill="#171918" x="0" y="367.5" width="12.2" height="24.65" shape-rendering="crispEdges"/><rect fill="#171918" x="12.2" y="367.5" width="12.2" height="24.65" shape-rendering="crispEdges"/><rect fill="#171918" x="24.4" y="367.5" width="183" height="24.65" shape-rendering="crispEdges"/><rect fill="#171918" x="207.4" y="367.5" width="36.6" height="24.65" shape-rendering="crispEdges"/><rect fill="#171918" x="244" y="367.5" width="24.4" height="24.65" shape-rendering="crispEdges"/><rect fill="#171918" x="268.4" y="367.5" width="512.4" height="24.65" shape-rendering="crispEdges"/><rect fill="#171918" x="780.8" y="367.5" width="12.2" height="24.65" shape-rendering="crispEdges"/><rect fill="#20231f" x="793" y="367.5" width="36.6" height="24.65" shape-rendering="crispEdges"/><rect fill="#20231f" x="829.6" y="367.5" width="48.8" height="24.65" shape-rendering="crispEdges"/><rect fill="#20231f" x="878.4" y="367.5" width="36.6" height="24.65" shape-rendering="crispEdges"/><rect fill="#171918" x="915" y="367.5" width="24.4" height="24.65" shape-rendering="crispEdges"/><rect fill="#000402" x="939.4" y="367.5" width="12.2" height="24.65" shape-rendering="crispEdges"/><rect fill="#171918" x="951.6" y="367.5" width="12.2" height="24.65" shape-rendering="crispEdges"/><rect fill="#171918" x="963.8" y="367.5" width="12.2" height="24.65" shape-rendering="crispEdges"/><rect fill="#171918" x="0" y="391.9" width="12.2" height="24.65" shape-rendering="crispEdges"/><rect fill="#171918" x="12.2" y="391.9" width="12.2" height="24.65" shape-rendering="crispEdges"/><rect fill="#171918" x="24.4" y="391.9" width="890.6" height="24.65" shape-rendering="crispEdges"/><rect fill="#171918" x="915" y="391.9" width="24.4" height="24.65" shape-rendering="crispEdges"/><rect fill="#000402" x="939.4" y="391.9" width="12.2" height="24.65" shape-rendering="crispEdges"/><rect fill="#171918" x="951.6" y="391.9" width="12.2" height="24.65" shape-rendering="crispEdges"/><rect fill="#171918" x="963.8" y="391.9" width="12.2" height="24.65" shape-rendering="crispEdges"/><rect fill="#171918" x="0" y="416.3" width="12.2" height="24.65" shape-rendering="crispEdges"/><rect fill="#171918" x="12.2" y="416.3" width="12.2" height="24.65" shape-rendering="crispEdges"/><rect fill="#171918" x="24.4" y="416.3" width="73.2" height="24.65" shape-rendering="crispEdges"/><rect fill="#171918" x="97.6" y="416.3" width="841.8" height="24.65" shape-rendering="crispEdges"/><rect fill="#000402" x="939.4" y="416.3" width="12.2" height="24.65" shape-rendering="crispEdges"/><rect fill="#171918" x="951.6" y="416.3" width="12.2" height="24.65" shape-rendering="crispEdges"/><rect fill="#171918" x="963.8" y="416.3" width="12.2" height="24.65" shape-rendering="crispEdges"/><rect fill="#171918" x="0" y="440.7" width="12.2" height="24.65" shape-rendering="crispEdges"/><rect fill="#171918" x="12.2" y="440.7" width="12.2" height="24.65" shape-rendering="crispEdges"/><rect fill="#171918" x="24.4" y="440.7" width="109.8" height="24.65" shape-rendering="crispEdges"/><rect fill="#171918" x="134.2" y="440.7" width="109.8" height="24.65" shape-rendering="crispEdges"/><rect fill="#171918" x="244" y="440.7" width="24.4" height="24.65" shape-rendering="crispEdges"/><rect fill="#171918" x="268.4" y="440.7" width="122" height="24.65" shape-rendering="crispEdges"/><rect fill="#171918" x="390.4" y="440.7" width="549" height="24.65" shape-rendering="crispEdges"/><rect fill="#000402" x="939.4" y="440.7" width="12.2" height="24.65" shape-rendering="crispEdges"/><rect fill="#171918" x="951.6" y="440.7" width="12.2" height="24.65" shape-rendering="crispEdges"/><rect fill="#171918" x="963.8" y="440.7" width="12.2" height="24.65" shape-rendering="crispEdges"/><rect fill="#171918" x="0" y="465.1" width="12.2" height="24.65" shape-rendering="crispEdges"/><rect fill="#171918" x="12.2" y="465.1" width="256.2" height="24.65" shape-rendering="crispEdges"/><rect fill="#171918" x="268.4" y="465.1" width="170.8" height="24.65" shape-rendering="crispEdges"/><rect fill="#171918" x="439.2" y="465.1" width="500.2" height="24.65" shape-rendering="crispEdges"/><rect fill="#000402" x="939.4" y="465.1" width="12.2" height="24.65" shape-rendering="crispEdges"/><rect fill="#171918" x="951.6" y="465.1" width="12.2" height="24.65" shape-rendering="crispEdges"/><rect fill="#171918" x="963.8" y="465.1" width="12.2" height="24.65" shape-rendering="crispEdges"/><rect fill="#171918" x="0" y="489.5" width="12.2" height="24.65" shape-rendering="crispEdges"/><rect fill="#171918" x="12.2" y="489.5" width="12.2" height="24.65" shape-rendering="crispEdges"/><rect fill="#171918" x="24.4" y="489.5" width="927.2" height="24.65" shape-rendering="crispEdges"/><rect fill="#171918" x="951.6" y="489.5" width="12.2" height="24.65" shape-rendering="crispEdges"/><rect fill="#171918" x="963.8" y="489.5" width="12.2" height="24.65" shape-rendering="crispEdges"/><rect fill="#171918" x="0" y="513.9" width="12.2" height="24.65" shape-rendering="crispEdges"/><rect fill="#171918" x="12.2" y="513.9" width="24.4" height="24.65" shape-rendering="crispEdges"/><rect fill="#20231f" x="36.6" y="513.9" width="183" height="24.65" shape-rendering="crispEdges"/><rect fill="#20231f" x="219.6" y="513.9" width="48.8" height="24.65" shape-rendering="crispEdges"/><rect fill="#20231f" x="268.4" y="513.9" width="195.2" height="24.65" shape-rendering="crispEdges"/><rect fill="#171918" x="463.6" y="513.9" width="0" height="24.65" shape-rendering="crispEdges"/><rect fill="#171918" x="463.6" y="513.9" width="12.2" height="24.65" shape-rendering="crispEdges"/><rect fill="#dfb56d" x="475.8" y="513.9" width="134.2" height="24.65" shape-rendering="crispEdges"/><rect fill="#dfb56d" x="610" y="513.9" width="158.6" height="24.65" shape-rendering="crispEdges"/><rect fill="#dfb56d" x="768.6" y="513.9" width="146.4" height="24.65" shape-rendering="crispEdges"/><rect fill="#171918" x="915" y="513.9" width="48.8" height="24.65" shape-rendering="crispEdges"/><rect fill="#171918" x="963.8" y="513.9" width="12.2" height="24.65" shape-rendering="crispEdges"/><rect fill="#171918" x="0" y="538.3" width="976" height="24.65" shape-rendering="crispEdges"/><rect fill="#20231f" x="0" y="562.7" width="36.6" height="24.65" shape-rendering="crispEdges"/><rect fill="#20231f" x="36.6" y="562.7" width="85.4" height="24.65" shape-rendering="crispEdges"/><rect fill="#20231f" x="122" y="562.7" width="854" height="24.65" shape-rendering="crispEdges"/>
    <g class="terminal-matrix">
    <text class="terminal-r1" x="0" y="20" textLength="976" clip-path="url(#terminal-line-0)">┌──────────────────────────────────────────────────────────────────────────────┐</text><text class="terminal-r2" x="976" y="20" textLength="12.2" clip-path="url(#terminal-line-0)">
</text><text class="terminal-r1" x="0" y="44.4" textLength="12.2" clip-path="url(#terminal-line-1)">│</text><text class="terminal-r3" x="36.6" y="44.4" textLength="244" clip-path="url(#terminal-line-1)">Review&#160;backup&#160;update</text><text class="terminal-r1" x="963.8" y="44.4" textLength="12.2" clip-path="url(#terminal-line-1)">│</text><text class="terminal-r2" x="976" y="44.4" textLength="12.2" clip-path="url(#terminal-line-1)">
</text><text class="terminal-r1" x="0" y="68.8" textLength="12.2" clip-path="url(#terminal-line-2)">│</text><text class="terminal-r1" x="24.4" y="68.8" textLength="927.2" clip-path="url(#terminal-line-2)">────────────────────────────────────────────────────────────────────────────</text><text class="terminal-r1" x="963.8" y="68.8" textLength="12.2" clip-path="url(#terminal-line-2)">│</text><text class="terminal-r2" x="976" y="68.8" textLength="12.2" clip-path="url(#terminal-line-2)">
</text><text class="terminal-r1" x="0" y="93.2" textLength="12.2" clip-path="url(#terminal-line-3)">│</text><text class="terminal-r4" x="24.4" y="93.2" textLength="12.2" clip-path="url(#terminal-line-3)">│</text><text class="terminal-r5" x="48.8" y="93.2" textLength="85.4" clip-path="url(#terminal-line-3)">Warning</text><text class="terminal-r1" x="963.8" y="93.2" textLength="12.2" clip-path="url(#terminal-line-3)">│</text><text class="terminal-r2" x="976" y="93.2" textLength="12.2" clip-path="url(#terminal-line-3)">
</text><text class="terminal-r1" x="0" y="117.6" textLength="12.2" clip-path="url(#terminal-line-4)">│</text><text class="terminal-r4" x="24.4" y="117.6" textLength="12.2" clip-path="url(#terminal-line-4)">│</text><text class="terminal-r1" x="963.8" y="117.6" textLength="12.2" clip-path="url(#terminal-line-4)">│</text><text class="terminal-r2" x="976" y="117.6" textLength="12.2" clip-path="url(#terminal-line-4)">
</text><text class="terminal-r1" x="0" y="142" textLength="12.2" clip-path="url(#terminal-line-5)">│</text><text class="terminal-r4" x="24.4" y="142" textLength="12.2" clip-path="url(#terminal-line-5)">│</text><text class="terminal-r7" x="48.8" y="142" textLength="646.6" clip-path="url(#terminal-line-5)">The&#160;loaded&#160;documents&#160;may&#160;omit&#160;a&#160;newer&#160;backup&#160;version.</text><text class="terminal-r1" x="963.8" y="142" textLength="12.2" clip-path="url(#terminal-line-5)">│</text><text class="terminal-r2" x="976" y="142" textLength="12.2" clip-path="url(#terminal-line-5)">
</text><text class="terminal-r1" x="0" y="166.4" textLength="12.2" clip-path="url(#terminal-line-6)">│</text><text class="terminal-r3" x="24.4" y="166.4" textLength="85.4" clip-path="url(#terminal-line-6)">Choices</text><text class="terminal-r1" x="963.8" y="166.4" textLength="12.2" clip-path="url(#terminal-line-6)">│</text><text class="terminal-r2" x="976" y="166.4" textLength="12.2" clip-path="url(#terminal-line-6)">
</text><text class="terminal-r1" x="0" y="190.8" textLength="12.2" clip-path="url(#terminal-line-7)">│</text><text class="terminal-r8" x="24.4" y="190.8" textLength="73.2" clip-path="url(#terminal-line-7)">Backup</text><text class="terminal-r9" x="268.4" y="190.8" textLength="195.2" clip-path="url(#terminal-line-7)">1&#160;document&#160;input</text><text class="terminal-r9" x="829.6" y="190.8" textLength="48.8" clip-path="url(#terminal-line-7)">Edit</text><text class="terminal-r1" x="963.8" y="190.8" textLength="12.2" clip-path="url(#terminal-line-7)">│</text><text class="terminal-r2" x="976" y="190.8" textLength="12.2" clip-path="url(#terminal-line-7)">
</text><text class="terminal-r1" x="0" y="215.2" textLength="12.2" clip-path="url(#terminal-line-8)">│</text><text class="terminal-r1" x="963.8" y="215.2" textLength="12.2" clip-path="url(#terminal-line-8)">│</text><text class="terminal-r2" x="976" y="215.2" textLength="12.2" clip-path="url(#terminal-line-8)">
</text><text class="terminal-r1" x="0" y="239.6" textLength="12.2" clip-path="url(#terminal-line-9)">│</text><text class="terminal-r8" x="24.4" y="239.6" textLength="85.4" clip-path="url(#terminal-line-9)">Changes</text><text class="terminal-r9" x="268.4" y="239.6" textLength="414.8" clip-path="url(#terminal-line-9)">1&#160;folder,&#160;replacing&#160;matching&#160;paths</text><text class="terminal-r9" x="829.6" y="239.6" textLength="48.8" clip-path="url(#terminal-line-9)">Edit</text><text class="terminal-r1" x="963.8" y="239.6" textLength="12.2" clip-path="url(#terminal-line-9)">│</text><text class="terminal-r2" x="976" y="239.6" textLength="12.2" clip-path="url(#terminal-line-9)">
</text><text class="terminal-r1" x="0" y="264" textLength="12.2" clip-path="url(#terminal-line-10)">│</text><text class="terminal-r1" x="963.8" y="264" textLength="12.2" clip-path="url(#terminal-line-10)">│</text><text class="terminal-r2" x="976" y="264" textLength="12.2" clip-path="url(#terminal-line-10)">
</text><text class="terminal-r1" x="0" y="288.4" textLength="12.2" clip-path="url(#terminal-line-11)">│</text><text class="terminal-r8" x="24.4" y="288.4" textLength="170.8" clip-path="url(#terminal-line-11)">Source&#160;version</text><text class="terminal-r9" x="268.4" y="288.4" textLength="366" clip-path="url(#terminal-line-11)">Newest&#160;loaded&#160;version&#160;accepted</text><text class="terminal-r9" x="829.6" y="288.4" textLength="48.8" clip-path="url(#terminal-line-11)">Edit</text><text class="terminal-r1" x="963.8" y="288.4" textLength="12.2" clip-path="url(#terminal-line-11)">│</text><text class="terminal-r2" x="976" y="288.4" textLength="12.2" clip-path="url(#terminal-line-11)">
</text><text class="terminal-r1" x="0" y="312.8" textLength="12.2" clip-path="url(#terminal-line-12)">│</text><text class="terminal-r1" x="963.8" y="312.8" textLength="12.2" clip-path="url(#terminal-line-12)">│</text><text class="terminal-r2" x="976" y="312.8" textLength="12.2" clip-path="url(#terminal-line-12)">
</text><text class="terminal-r1" x="0" y="337.2" textLength="12.2" clip-path="url(#terminal-line-13)">│</text><text class="terminal-r8" x="24.4" y="337.2" textLength="73.2" clip-path="url(#terminal-line-13)">Unlock</text><text class="terminal-r9" x="268.4" y="337.2" textLength="122" clip-path="url(#terminal-line-13)">Passphrase</text><text class="terminal-r9" x="829.6" y="337.2" textLength="48.8" clip-path="url(#terminal-line-13)">Edit</text><text class="terminal-r1" x="963.8" y="337.2" textLength="12.2" clip-path="url(#terminal-line-13)">│</text><text class="terminal-r2" x="976" y="337.2" textLength="12.2" clip-path="url(#terminal-line-13)">
</text><text class="terminal-r1" x="0" y="361.6" textLength="12.2" clip-path="url(#terminal-line-14)">│</text><text class="terminal-r10" x="939.4" y="361.6" textLength="12.2" clip-path="url(#terminal-line-14)">▃</text><text class="terminal-r1" x="963.8" y="361.6" textLength="12.2" clip-path="url(#terminal-line-14)">│</text><text class="terminal-r2" x="976" y="361.6" textLength="12.2" clip-path="url(#terminal-line-14)">
</text><text class="terminal-r1" x="0" y="386" textLength="12.2" clip-path="url(#terminal-line-15)">│</text><text class="terminal-r8" x="24.4" y="386" textLength="183" clip-path="url(#terminal-line-15)">Recovery&#160;sheets</text><text class="terminal-r9" x="268.4" y="386" textLength="512.4" clip-path="url(#terminal-line-15)">3&#160;new&#160;recovery&#160;sheets,&#160;2&#160;needed&#160;to&#160;restore</text><text class="terminal-r9" x="829.6" y="386" textLength="48.8" clip-path="url(#terminal-line-15)">Edit</text><text class="terminal-r1" x="963.8" y="386" textLength="12.2" clip-path="url(#terminal-line-15)">│</text><text class="terminal-r2" x="976" y="386" textLength="12.2" clip-path="url(#terminal-line-15)">
</text><text class="terminal-r1" x="0" y="410.4" textLength="12.2" clip-path="url(#terminal-line-16)">│</text><text class="terminal-r1" x="24.4" y="410.4" textLength="890.6" clip-path="url(#terminal-line-16)">─────────────────────────────────────────────────────────────────────────</text><text class="terminal-r1" x="963.8" y="410.4" textLength="12.2" clip-path="url(#terminal-line-16)">│</text><text class="terminal-r2" x="976" y="410.4" textLength="12.2" clip-path="url(#terminal-line-16)">
</text><text class="terminal-r1" x="0" y="434.8" textLength="12.2" clip-path="url(#terminal-line-17)">│</text><text class="terminal-r3" x="24.4" y="434.8" textLength="73.2" clip-path="url(#terminal-line-17)">Output</text><text class="terminal-r1" x="963.8" y="434.8" textLength="12.2" clip-path="url(#terminal-line-17)">│</text><text class="terminal-r2" x="976" y="434.8" textLength="12.2" clip-path="url(#terminal-line-17)">
</text><text class="terminal-r1" x="0" y="459.2" textLength="12.2" clip-path="url(#terminal-line-18)">│</text><text class="terminal-r8" x="24.4" y="459.2" textLength="109.8" clip-path="url(#terminal-line-18)">Documents</text><text class="terminal-r9" x="268.4" y="459.2" textLength="122" clip-path="url(#terminal-line-18)">Update&#160;PDF</text><text class="terminal-r1" x="963.8" y="459.2" textLength="12.2" clip-path="url(#terminal-line-18)">│</text><text class="terminal-r2" x="976" y="459.2" textLength="12.2" clip-path="url(#terminal-line-18)">
</text><text class="terminal-r1" x="0" y="483.6" textLength="12.2" clip-path="url(#terminal-line-19)">│</text><text class="terminal-r9" x="268.4" y="483.6" textLength="170.8" clip-path="url(#terminal-line-19)">Recovery&#160;guide</text><text class="terminal-r1" x="963.8" y="483.6" textLength="12.2" clip-path="url(#terminal-line-19)">│</text><text class="terminal-r2" x="976" y="483.6" textLength="12.2" clip-path="url(#terminal-line-19)">
</text><text class="terminal-r1" x="0" y="508" textLength="12.2" clip-path="url(#terminal-line-20)">│</text><text class="terminal-r1" x="24.4" y="508" textLength="927.2" clip-path="url(#terminal-line-20)">────────────────────────────────────────────────────────────────────────────</text><text class="terminal-r1" x="963.8" y="508" textLength="12.2" clip-path="url(#terminal-line-20)">│</text><text class="terminal-r2" x="976" y="508" textLength="12.2" clip-path="url(#terminal-line-20)">
</text><text class="terminal-r1" x="0" y="532.4" textLength="12.2" clip-path="url(#terminal-line-21)">│</text><text class="terminal-r9" x="219.6" y="532.4" textLength="48.8" clip-path="url(#terminal-line-21)">Back</text><text class="terminal-r11" x="610" y="532.4" textLength="158.6" clip-path="url(#terminal-line-21)">Create&#160;update</text><text class="terminal-r1" x="963.8" y="532.4" textLength="12.2" clip-path="url(#terminal-line-21)">│</text><text class="terminal-r2" x="976" y="532.4" textLength="12.2" clip-path="url(#terminal-line-21)">
</text><text class="terminal-r1" x="0" y="556.8" textLength="976" clip-path="url(#terminal-line-22)">└──────────────────────────────────────────────────────────────────────────────┘</text><text class="terminal-r2" x="976" y="556.8" textLength="12.2" clip-path="url(#terminal-line-22)">
</text><text class="terminal-r12" x="0" y="581.2" textLength="36.6" clip-path="url(#terminal-line-23)">esc</text><text class="terminal-r8" x="36.6" y="581.2" textLength="85.4" clip-path="url(#terminal-line-23)">&#160;Cancel</text>
    </g>
    </g>
</svg>
