<svg class="rich-terminal" viewBox="0 0 994 635.5999999999999" xmlns="http://www.w3.org/2000/svg">
    <!-- Generated with Rich https://www.textualize.io -->
    <style>

    @font-face {
        font-family: "Fira Code";
        src: local("FiraCode-Regular"),
                url("https://cdnjs.cloudflare.com/ajax/libs/firacode/6.2.0/woff2/FiraCode-Regular.woff2") format("woff2"),
                url("https://cdnjs.cloudflare.com/ajax/libs/firacode/6.2.0/woff/FiraCode-Regular.woff") format("woff");
        font-style: normal;
        font-weight: 400;
    }
    @font-face {
        font-family: "Fira Code";
        src: local("FiraCode-Bold"),
                url("https://cdnjs.cloudflare.com/ajax/libs/firacode/6.2.0/woff2/FiraCode-Bold.woff2") format("woff2"),
                url("https://cdnjs.cloudflare.com/ajax/libs/firacode/6.2.0/woff/FiraCode-Bold.woff") format("woff");
        font-style: bold;
        font-weight: 700;
    }

    .terminal-matrix {
        font-family: Fira Code, monospace;
        font-size: 20px;
        line-height: 24.4px;
        font-variant-east-asian: full-width;
    }

    .terminal-title {
        font-size: 18px;
        font-weight: bold;
        font-family: arial;
    }

    .terminal-r1 { fill: #e0e1e1 }
.terminal-r2 { fill: #2e3d3c;font-weight: bold }
.terminal-r3 { fill: #607170 }
.terminal-r4 { fill: #c5c8c6 }
.terminal-r5 { fill: #e2e2e2;font-weight: bold }
.terminal-r6 { fill: #e09da1;font-weight: bold }
.terminal-r7 { fill: #384342 }
.terminal-r8 { fill: #171a1b }
.terminal-r9 { fill: #d06c72 }
.terminal-r10 { fill: #e3e4e4 }
.terminal-r11 { fill: #010608 }
.terminal-r12 { fill: #ece9e1;font-weight: bold }
.terminal-r13 { fill: #e2e2e2 }
.terminal-r14 { fill: #111718;font-weight: bold;text-decoration: underline; }
.terminal-r15 { fill: #1d2222 }
.terminal-r16 { fill: #15191a;font-weight: bold }
    </style>

    <defs>
    <clipPath id="terminal-clip-terminal">
      <rect x="0" y="0" width="975.0" height="584.5999999999999" />
    </clipPath>
    <clipPath id="terminal-line-0">
    <rect x="0" y="1.5" width="976" height="24.65"/>
            </clipPath>
<clipPath id="terminal-line-1">
    <rect x="0" y="25.9" width="976" height="24.65"/>
            </clipPath>
<clipPath id="terminal-line-2">
    <rect x="0" y="50.3" width="976" height="24.65"/>
            </clipPath>
<clipPath id="terminal-line-3">
    <rect x="0" y="74.7" width="976" height="24.65"/>
            </clipPath>
<clipPath id="terminal-line-4">
    <rect x="0" y="99.1" width="976" height="24.65"/>
            </clipPath>
<clipPath id="terminal-line-5">
    <rect x="0" y="123.5" width="976" height="24.65"/>
            </clipPath>
<clipPath id="terminal-line-6">
    <rect x="0" y="147.9" width="976" height="24.65"/>
            </clipPath>
<clipPath id="terminal-line-7">
    <rect x="0" y="172.3" width="976" height="24.65"/>
            </clipPath>
<clipPath id="terminal-line-8">
    <rect x="0" y="196.7" width="976" height="24.65"/>
            </clipPath>
<clipPath id="terminal-line-9">
    <rect x="0" y="221.1" width="976" height="24.65"/>
            </clipPath>
<clipPath id="terminal-line-10">
    <rect x="0" y="245.5" width="976" height="24.65"/>
            </clipPath>
<clipPath id="terminal-line-11">
    <rect x="0" y="269.9" width="976" height="24.65"/>
            </clipPath>
<clipPath id="terminal-line-12">
    <rect x="0" y="294.3" width="976" height="24.65"/>
            </clipPath>
<clipPath id="terminal-line-13">
    <rect x="0" y="318.7" width="976" height="24.65"/>
            </clipPath>
<clipPath id="terminal-line-14">
    <rect x="0" y="343.1" width="976" height="24.65"/>
            </clipPath>
<clipPath id="terminal-line-15">
    <rect x="0" y="367.5" width="976" height="24.65"/>
            </clipPath>
<clipPath id="terminal-line-16">
    <rect x="0" y="391.9" width="976" height="24.65"/>
            </clipPath>
<clipPath id="terminal-line-17">
    <rect x="0" y="416.3" width="976" height="24.65"/>
            </clipPath>
<clipPath id="terminal-line-18">
    <rect x="0" y="440.7" width="976" height="24.65"/>
            </clipPath>
<clipPath id="terminal-line-19">
    <rect x="0" y="465.1" width="976" height="24.65"/>
            </clipPath>
<clipPath id="terminal-line-20">
    <rect x="0" y="489.5" width="976" height="24.65"/>
            </clipPath>
<clipPath id="terminal-line-21">
    <rect x="0" y="513.9" width="976" height="24.65"/>
            </clipPath>
<clipPath id="terminal-line-22">
    <rect x="0" y="538.3" width="976" height="24.65"/>
            </clipPath>
    </defs>

    <rect fill="#292929" stroke="rgba(255,255,255,0.35)" stroke-width="1" x="1" y="1" width="992" height="633.6" rx="8"/><text class="terminal-title" fill="#c5c8c6" text-anchor="middle" x="496" y="27">Ethernity&#160;-&#160;rebuild-partial&#160;-&#160;80x24</text>
            <g transform="translate(26,22)">
            <circle cx="0" cy="0" r="7" fill="#ff5f57"/>
            <circle cx="22" cy="0" r="7" fill="#febc2e"/>
            <circle cx="44" cy="0" r="7" fill="#28c840"/>
            </g>

    <g transform="translate(9, 41)" clip-path="url(#terminal-clip-terminal)">
    <rect fill="#1a1e1f" x="0" y="1.5" width="12.2" height="24.65" shape-rendering="crispEdges"/><rect fill="#1a1e1f" x="12.2" y="1.5" width="12.2" height="24.65" shape-rendering="crispEdges"/><rect fill="#171a1b" x="24.4" y="1.5" width="927.2" height="24.65" shape-rendering="crispEdges"/><rect fill="#1a1e1f" x="951.6" y="1.5" width="24.4" height="24.65" shape-rendering="crispEdges"/><rect fill="#181c1d" x="0" y="25.9" width="24.4" height="24.65" shape-rendering="crispEdges"/><rect fill="#171a1b" x="24.4" y="25.9" width="12.2" height="24.65" shape-rendering="crispEdges"/><rect fill="#202526" x="36.6" y="25.9" width="12.2" height="24.65" shape-rendering="crispEdges"/><rect fill="#202526" x="48.8" y="25.9" width="170.8" height="24.65" shape-rendering="crispEdges"/><rect fill="#202526" x="219.6" y="25.9" width="719.8" height="24.65" shape-rendering="crispEdges"/><rect fill="#171a1b" x="939.4" y="25.9" width="12.2" height="24.65" shape-rendering="crispEdges"/><rect fill="#171a1b" x="951.6" y="25.9" width="24.4" height="24.65" shape-rendering="crispEdges"/><rect fill="#171a1b" x="0" y="50.3" width="24.4" height="24.65" shape-rendering="crispEdges"/><rect fill="#171a1b" x="24.4" y="50.3" width="12.2" height="24.65" shape-rendering="crispEdges"/><rect fill="#202526" x="36.6" y="50.3" width="12.2" height="24.65" shape-rendering="crispEdges"/><rect fill="#202526" x="48.8" y="50.3" width="634.4" height="24.65" shape-rendering="crispEdges"/><rect fill="#202526" x="683.2" y="50.3" width="244" height="24.65" shape-rendering="crispEdges"/><rect fill="#202526" x="927.2" y="50.3" width="12.2" height="24.65" shape-rendering="crispEdges"/><rect fill="#171a1b" x="939.4" y="50.3" width="12.2" height="24.65" shape-rendering="crispEdges"/><rect fill="#171a1b" x="951.6" y="50.3" width="24.4" height="24.65" shape-rendering="crispEdges"/><rect fill="#171a1b" x="0" y="74.7" width="24.4" height="24.65" shape-rendering="crispEdges"/><rect fill="#171a1b" x="24.4" y="74.7" width="12.2" height="24.65" shape-rendering="crispEdges"/><rect fill="#202526" x="36.6" y="74.7" width="902.8" height="24.65" shape-rendering="crispEdges"/><rect fill="#171a1b" x="939.4" y="74.7" width="12.2" height="24.65" shape-rendering="crispEdges"/><rect fill="#171a1b" x="951.6" y="74.7" width="24.4" height="24.65" shape-rendering="crispEdges"/><rect fill="#171a1b" x="0" y="99.1" width="24.4" height="24.65" shape-rendering="crispEdges"/><rect fill="#171a1b" x="24.4" y="99.1" width="12.2" height="24.65" shape-rendering="crispEdges"/><rect fill="#171a1b" x="36.6" y="99.1" width="878.4" height="24.65" shape-rendering="crispEdges"/><rect fill="#224946" x="915" y="99.1" width="24.4" height="24.65" shape-rendering="crispEdges"/><rect fill="#171a1b" x="939.4" y="99.1" width="12.2" height="24.65" shape-rendering="crispEdges"/><rect fill="#171a1b" x="951.6" y="99.1" width="24.4" height="24.65" shape-rendering="crispEdges"/><rect fill="#171a1b" x="0" y="123.5" width="24.4" height="24.65" shape-rendering="crispEdges"/><rect fill="#171a1b" x="24.4" y="123.5" width="12.2" height="24.65" shape-rendering="crispEdges"/><rect fill="#2a3031" x="36.6" y="123.5" width="12.2" height="24.65" shape-rendering="crispEdges"/><rect fill="#2a3031" x="48.8" y="123.5" width="866.2" height="24.65" shape-rendering="crispEdges"/><rect fill="#224946" x="915" y="123.5" width="24.4" height="24.65" shape-rendering="crispEdges"/><rect fill="#171a1b" x="939.4" y="123.5" width="12.2" height="24.65" shape-rendering="crispEdges"/><rect fill="#181c1d" x="951.6" y="123.5" width="12.2" height="24.65" shape-rendering="crispEdges"/><rect fill="#171a1b" x="963.8" y="123.5" width="12.2" height="24.65" shape-rendering="crispEdges"/><rect fill="#171a1b" x="0" y="147.9" width="24.4" height="24.65" shape-rendering="crispEdges"/><rect fill="#171a1b" x="24.4" y="147.9" width="12.2" height="24.65" shape-rendering="crispEdges"/><rect fill="#2a3031" x="36.6" y="147.9" width="12.2" height="24.65" shape-rendering="crispEdges"/><rect fill="#2a3031" x="48.8" y="147.9" width="12.2" height="24.65" shape-rendering="crispEdges"/><rect fill="#2a3031" x="61" y="147.9" width="231.8" height="24.65" shape-rendering="crispEdges"/><rect fill="#2a3031" x="292.8" y="147.9" width="622.2" height="24.65" shape-rendering="crispEdges"/><rect fill="#224946" x="915" y="147.9" width="24.4" height="24.65" shape-rendering="crispEdges"/><rect fill="#171a1b" x="939.4" y="147.9" width="12.2" height="24.65" shape-rendering="crispEdges"/><rect fill="#181c1d" x="951.6" y="147.9" width="12.2" height="24.65" shape-rendering="crispEdges"/><rect fill="#171a1b" x="963.8" y="147.9" width="12.2" height="24.65" shape-rendering="crispEdges"/><rect fill="#171a1b" x="0" y="172.3" width="24.4" height="24.65" shape-rendering="crispEdges"/><rect fill="#171a1b" x="24.4" y="172.3" width="12.2" height="24.65" shape-rendering="crispEdges"/><rect fill="#2a3031" x="36.6" y="172.3" width="12.2" height="24.65" shape-rendering="crispEdges"/><rect fill="#2a3031" x="48.8" y="172.3" width="866.2" height="24.65" shape-rendering="crispEdges"/><rect fill="#224946" x="915" y="172.3" width="24.4" height="24.65" shape-rendering="crispEdges"/><rect fill="#171a1b" x="939.4" y="172.3" width="12.2" height="24.65" shape-rendering="crispEdges"/><rect fill="#181c1d" x="951.6" y="172.3" width="12.2" height="24.65" shape-rendering="crispEdges"/><rect fill="#171a1b" x="963.8" y="172.3" width="12.2" height="24.65" shape-rendering="crispEdges"/><rect fill="#171a1b" x="0" y="196.7" width="24.4" height="24.65" shape-rendering="crispEdges"/><rect fill="#171a1b" x="24.4" y="196.7" width="12.2" height="24.65" shape-rendering="crispEdges"/><rect fill="#2a3031" x="36.6" y="196.7" width="12.2" height="24.65" shape-rendering="crispEdges"/><rect fill="#2a3031" x="48.8" y="196.7" width="12.2" height="24.65" shape-rendering="crispEdges"/><rect fill="#2a3031" x="61" y="196.7" width="719.8" height="24.65" shape-rendering="crispEdges"/><rect fill="#2a3031" x="780.8" y="196.7" width="134.2" height="24.65" shape-rendering="crispEdges"/><rect fill="#224946" x="915" y="196.7" width="24.4" height="24.65" shape-rendering="crispEdges"/><rect fill="#171a1b" x="939.4" y="196.7" width="12.2" height="24.65" shape-rendering="crispEdges"/><rect fill="#181c1d" x="951.6" y="196.7" width="12.2" height="24.65" shape-rendering="crispEdges"/><rect fill="#171a1b" x="963.8" y="196.7" width="12.2" height="24.65" shape-rendering="crispEdges"/><rect fill="#171a1b" x="0" y="221.1" width="24.4" height="24.65" shape-rendering="crispEdges"/><rect fill="#171a1b" x="24.4" y="221.1" width="12.2" height="24.65" shape-rendering="crispEdges"/><rect fill="#2a3031" x="36.6" y="221.1" width="12.2" height="24.65" shape-rendering="crispEdges"/><rect fill="#2a3031" x="48.8" y="221.1" width="866.2" height="24.65" shape-rendering="crispEdges"/><rect fill="#224946" x="915" y="221.1" width="24.4" height="24.65" shape-rendering="crispEdges"/><rect fill="#171a1b" x="939.4" y="221.1" width="12.2" height="24.65" shape-rendering="crispEdges"/><rect fill="#181c1d" x="951.6" y="221.1" width="12.2" height="24.65" shape-rendering="crispEdges"/><rect fill="#171a1b" x="963.8" y="221.1" width="12.2" height="24.65" shape-rendering="crispEdges"/><rect fill="#171a1b" x="0" y="245.5" width="24.4" height="24.65" shape-rendering="crispEdges"/><rect fill="#171a1b" x="24.4" y="245.5" width="12.2" height="24.65" shape-rendering="crispEdges"/><rect fill="#2a3031" x="36.6" y="245.5" width="12.2" height="24.65" shape-rendering="crispEdges"/><rect fill="#2a3031" x="48.8" y="245.5" width="12.2" height="24.65" shape-rendering="crispEdges"/><rect fill="#2a3031" x="61" y="245.5" width="256.2" height="24.65" shape-rendering="crispEdges"/><rect fill="#2a3031" x="317.2" y="245.5" width="597.8" height="24.65" shape-rendering="crispEdges"/><rect fill="#224946" x="915" y="245.5" width="24.4" height="24.65" shape-rendering="crispEdges"/><rect fill="#171a1b" x="939.4" y="245.5" width="12.2" height="24.65" shape-rendering="crispEdges"/><rect fill="#181c1d" x="951.6" y="245.5" width="12.2" height="24.65" shape-rendering="crispEdges"/><rect fill="#171a1b" x="963.8" y="245.5" width="12.2" height="24.65" shape-rendering="crispEdges"/><rect fill="#171a1b" x="0" y="269.9" width="24.4" height="24.65" shape-rendering="crispEdges"/><rect fill="#171a1b" x="24.4" y="269.9" width="12.2" height="24.65" shape-rendering="crispEdges"/><rect fill="#2a3031" x="36.6" y="269.9" width="12.2" height="24.65" shape-rendering="crispEdges"/><rect fill="#2a3031" x="48.8" y="269.9" width="12.2" height="24.65" shape-rendering="crispEdges"/><rect fill="#2a3031" x="61" y="269.9" width="829.6" height="24.65" shape-rendering="crispEdges"/><rect fill="#2a3031" x="890.6" y="269.9" width="24.4" height="24.65" shape-rendering="crispEdges"/><rect fill="#224946" x="915" y="269.9" width="24.4" height="24.65" shape-rendering="crispEdges"/><rect fill="#171a1b" x="939.4" y="269.9" width="12.2" height="24.65" shape-rendering="crispEdges"/><rect fill="#181c1d" x="951.6" y="269.9" width="12.2" height="24.65" shape-rendering="crispEdges"/><rect fill="#171a1b" x="963.8" y="269.9" width="12.2" height="24.65" shape-rendering="crispEdges"/><rect fill="#171a1b" x="0" y="294.3" width="24.4" height="24.65" shape-rendering="crispEdges"/><rect fill="#171a1b" x="24.4" y="294.3" width="12.2" height="24.65" shape-rendering="crispEdges"/><rect fill="#2a3031" x="36.6" y="294.3" width="12.2" height="24.65" shape-rendering="crispEdges"/><rect fill="#2a3031" x="48.8" y="294.3" width="866.2" height="24.65" shape-rendering="crispEdges"/><rect fill="#224946" x="915" y="294.3" width="24.4" height="24.65" shape-rendering="crispEdges"/><rect fill="#171a1b" x="939.4" y="294.3" width="12.2" height="24.65" shape-rendering="crispEdges"/><rect fill="#181c1d" x="951.6" y="294.3" width="12.2" height="24.65" shape-rendering="crispEdges"/><rect fill="#171a1b" x="963.8" y="294.3" width="12.2" height="24.65" shape-rendering="crispEdges"/><rect fill="#171a1b" x="0" y="318.7" width="24.4" height="24.65" shape-rendering="crispEdges"/><rect fill="#171a1b" x="24.4" y="318.7" width="12.2" height="24.65" shape-rendering="crispEdges"/><rect fill="#171a1b" x="36.6" y="318.7" width="878.4" height="24.65" shape-rendering="crispEdges"/><rect fill="#010608" x="915" y="318.7" width="24.4" height="24.65" shape-rendering="crispEdges"/><rect fill="#171a1b" x="939.4" y="318.7" width="12.2" height="24.65" shape-rendering="crispEdges"/><rect fill="#181c1d" x="951.6" y="318.7" width="12.2" height="24.65" shape-rendering="crispEdges"/><rect fill="#171a1b" x="963.8" y="318.7" width="12.2" height="24.65" shape-rendering="crispEdges"/><rect fill="#171a1b" x="0" y="343.1" width="24.4" height="24.65" shape-rendering="crispEdges"/><rect fill="#171a1b" x="24.4" y="343.1" width="12.2" height="24.65" shape-rendering="crispEdges"/><rect fill="#2a3031" x="36.6" y="343.1" width="366" height="24.65" shape-rendering="crispEdges"/><rect fill="#2a3031" x="402.6" y="343.1" width="146.4" height="24.65" shape-rendering="crispEdges"/><rect fill="#2a3031" x="549" y="343.1" width="366" height="24.65" shape-rendering="crispEdges"/><rect fill="#010608" x="915" y="343.1" width="24.4" height="24.65" shape-rendering="crispEdges"/><rect fill="#171a1b" x="939.4" y="343.1" width="12.2" height="24.65" shape-rendering="crispEdges"/><rect fill="#181c1d" x="951.6" y="343.1" width="12.2" height="24.65" shape-rendering="crispEdges"/><rect fill="#171a1b" x="963.8" y="343.1" width="12.2" height="24.65" shape-rendering="crispEdges"/><rect fill="#171a1b" x="0" y="367.5" width="24.4" height="24.65" shape-rendering="crispEdges"/><rect fill="#171a1b" x="24.4" y="367.5" width="12.2" height="24.65" shape-rendering="crispEdges"/><rect fill="#171a1b" x="36.6" y="367.5" width="878.4" height="24.65" shape-rendering="crispEdges"/><rect fill="#010608" x="915" y="367.5" width="24.4" height="24.65" shape-rendering="crispEdges"/><rect fill="#171a1b" x="939.4" y="367.5" width="12.2" height="24.65" shape-rendering="crispEdges"/><rect fill="#181c1d" x="951.6" y="367.5" width="12.2" height="24.65" shape-rendering="crispEdges"/><rect fill="#171a1b" x="963.8" y="367.5" width="12.2" height="24.65" shape-rendering="crispEdges"/><rect fill="#171a1b" x="0" y="391.9" width="24.4" height="24.65" shape-rendering="crispEdges"/><rect fill="#171a1b" x="24.4" y="391.9" width="12.2" height="24.65" shape-rendering="crispEdges"/><rect fill="#2a3031" x="36.6" y="391.9" width="353.8" height="24.65" shape-rendering="crispEdges"/><rect fill="#2a3031" x="390.4" y="391.9" width="158.6" height="24.65" shape-rendering="crispEdges"/><rect fill="#2a3031" x="549" y="391.9" width="366" height="24.65" shape-rendering="crispEdges"/><rect fill="#010608" x="915" y="391.9" width="24.4" height="24.65" shape-rendering="crispEdges"/><rect fill="#171a1b" x="939.4" y="391.9" width="12.2" height="24.65" shape-rendering="crispEdges"/><rect fill="#181c1d" x="951.6" y="391.9" width="12.2" height="24.65" shape-rendering="crispEdges"/><rect fill="#171a1b" x="963.8" y="391.9" width="12.2" height="24.65" shape-rendering="crispEdges"/><rect fill="#171a1b" x="0" y="416.3" width="24.4" height="24.65" shape-rendering="crispEdges"/><rect fill="#171a1b" x="24.4" y="416.3" width="12.2" height="24.65" shape-rendering="crispEdges"/><rect fill="#171a1b" x="36.6" y="416.3" width="878.4" height="24.65" shape-rendering="crispEdges"/><rect fill="#010608" x="915" y="416.3" width="24.4" height="24.65" shape-rendering="crispEdges"/><rect fill="#171a1b" x="939.4" y="416.3" width="12.2" height="24.65" shape-rendering="crispEdges"/><rect fill="#181c1d" x="951.6" y="416.3" width="12.2" height="24.65" shape-rendering="crispEdges"/><rect fill="#171a1b" x="963.8" y="416.3" width="12.2" height="24.65" shape-rendering="crispEdges"/><rect fill="#171a1b" x="0" y="440.7" width="24.4" height="24.65" shape-rendering="crispEdges"/><rect fill="#171a1b" x="24.4" y="440.7" width="12.2" height="24.65" shape-rendering="crispEdges"/><rect fill="#171a1b" x="36.6" y="440.7" width="878.4" height="24.65" shape-rendering="crispEdges"/><rect fill="#010608" x="915" y="440.7" width="24.4" height="24.65" shape-rendering="crispEdges"/><rect fill="#171a1b" x="939.4" y="440.7" width="12.2" height="24.65" shape-rendering="crispEdges"/><rect fill="#181c1d" x="951.6" y="440.7" width="12.2" height="24.65" shape-rendering="crispEdges"/><rect fill="#171a1b" x="963.8" y="440.7" width="12.2" height="24.65" shape-rendering="crispEdges"/><rect fill="#171a1b" x="0" y="465.1" width="24.4" height="24.65" shape-rendering="crispEdges"/><rect fill="#171a1b" x="24.4" y="465.1" width="12.2" height="24.65" shape-rendering="crispEdges"/><rect fill="#202526" x="36.6" y="465.1" width="902.8" height="24.65" shape-rendering="crispEdges"/><rect fill="#171a1b" x="939.4" y="465.1" width="12.2" height="24.65" shape-rendering="crispEdges"/><rect fill="#181c1d" x="951.6" y="465.1" width="12.2" height="24.65" shape-rendering="crispEdges"/><rect fill="#171a1b" x="963.8" y="465.1" width="12.2" height="24.65" shape-rendering="crispEdges"/><rect fill="#171a1b" x="0" y="489.5" width="24.4" height="24.65" shape-rendering="crispEdges"/><rect fill="#171a1b" x="24.4" y="489.5" width="12.2" height="24.65" shape-rendering="crispEdges"/><rect fill="#202526" x="36.6" y="489.5" width="902.8" height="24.65" shape-rendering="crispEdges"/><rect fill="#171a1b" x="939.4" y="489.5" width="12.2" height="24.65" shape-rendering="crispEdges"/><rect fill="#181c1d" x="951.6" y="489.5" width="12.2" height="24.65" shape-rendering="crispEdges"/><rect fill="#171a1b" x="963.8" y="489.5" width="12.2" height="24.65" shape-rendering="crispEdges"/><rect fill="#171a1b" x="0" y="513.9" width="24.4" height="24.65" shape-rendering="crispEdges"/><rect fill="#171a1b" x="24.4" y="513.9" width="12.2" height="24.65" shape-rendering="crispEdges"/><rect fill="#202526" x="36.6" y="513.9" width="24.4" height="24.65" shape-rendering="crispEdges"/><rect fill="#202526" x="61" y="513.9" width="0" height="24.65" shape-rendering="crispEdges"/><rect fill="#202526" x="61" y="513.9" width="500.2" height="24.65" shape-rendering="crispEdges"/><rect fill="#2a3031" x="561.2" y="513.9" width="12.2" height="24.65" shape-rendering="crispEdges"/><rect fill="#2a3031" x="573.4" y="513.9" width="85.4" height="24.65" shape-rendering="crispEdges"/><rect fill="#2a3031" x="658.8" y="513.9" width="24.4" height="24.65" shape-rendering="crispEdges"/><rect fill="#202526" x="683.2" y="513.9" width="0" height="24.65" shape-rendering="crispEdges"/><rect fill="#202526" x="683.2" y="513.9" width="12.2" height="24.65" shape-rendering="crispEdges"/><rect fill="#5cb1a8" x="695.4" y="513.9" width="219.6" height="24.65" shape-rendering="crispEdges"/><rect fill="#202526" x="915" y="513.9" width="24.4" height="24.65" shape-rendering="crispEdges"/><rect fill="#171a1b" x="939.4" y="513.9" width="12.2" height="24.65" shape-rendering="crispEdges"/><rect fill="#171a1b" x="951.6" y="513.9" width="12.2" height="24.65" shape-rendering="crispEdges"/><rect fill="#171a1b" x="963.8" y="513.9" width="12.2" height="24.65" shape-rendering="crispEdges"/><rect fill="#171a1b" x="0" y="538.3" width="24.4" height="24.65" shape-rendering="crispEdges"/><rect fill="#171a1b" x="24.4" y="538.3" width="927.2" height="24.65" shape-rendering="crispEdges"/><rect fill="#171a1b" x="951.6" y="538.3" width="24.4" height="24.65" shape-rendering="crispEdges"/><rect fill="#171a1b" x="0" y="562.7" width="61" height="24.65" shape-rendering="crispEdges"/><rect fill="#233736" x="61" y="562.7" width="353.8" height="24.65" shape-rendering="crispEdges"/><rect fill="#233736" x="414.8" y="562.7" width="195.2" height="24.65" shape-rendering="crispEdges"/><rect fill="#233736" x="610" y="562.7" width="353.8" height="24.65" shape-rendering="crispEdges"/><rect fill="#171a1b" x="963.8" y="562.7" width="12.2" height="24.65" shape-rendering="crispEdges"/>
    <g class="terminal-matrix">
    <text class="terminal-r2" x="12.2" y="20" textLength="12.2" clip-path="url(#terminal-line-0)">E</text><text class="terminal-r3" x="24.4" y="20" textLength="927.2" clip-path="url(#terminal-line-0)">┌──────────────────────────────────────────────────────────────────────────┐</text><text class="terminal-r4" x="976" y="20" textLength="12.2" clip-path="url(#terminal-line-0)">
</text><text class="terminal-r3" x="24.4" y="44.4" textLength="12.2" clip-path="url(#terminal-line-1)">│</text><text class="terminal-r5" x="48.8" y="44.4" textLength="170.8" clip-path="url(#terminal-line-1)">Rebuild&#160;failed</text><text class="terminal-r3" x="939.4" y="44.4" textLength="12.2" clip-path="url(#terminal-line-1)">│</text><text class="terminal-r4" x="976" y="44.4" textLength="12.2" clip-path="url(#terminal-line-1)">
</text><text class="terminal-r3" x="24.4" y="68.8" textLength="12.2" clip-path="url(#terminal-line-2)">│</text><text class="terminal-r6" x="48.8" y="68.8" textLength="634.4" clip-path="url(#terminal-line-2)">The&#160;destination&#160;became&#160;read-only&#160;during&#160;the&#160;rebuild.</text><text class="terminal-r3" x="939.4" y="68.8" textLength="12.2" clip-path="url(#terminal-line-2)">│</text><text class="terminal-r4" x="976" y="68.8" textLength="12.2" clip-path="url(#terminal-line-2)">
</text><text class="terminal-r3" x="24.4" y="93.2" textLength="12.2" clip-path="url(#terminal-line-3)">│</text><text class="terminal-r7" x="36.6" y="93.2" textLength="902.8" clip-path="url(#terminal-line-3)">──────────────────────────────────────────────────────────────────────────</text><text class="terminal-r3" x="939.4" y="93.2" textLength="12.2" clip-path="url(#terminal-line-3)">│</text><text class="terminal-r4" x="976" y="93.2" textLength="12.2" clip-path="url(#terminal-line-3)">
</text><text class="terminal-r3" x="24.4" y="117.6" textLength="12.2" clip-path="url(#terminal-line-4)">│</text><text class="terminal-r3" x="939.4" y="117.6" textLength="12.2" clip-path="url(#terminal-line-4)">│</text><text class="terminal-r4" x="976" y="117.6" textLength="12.2" clip-path="url(#terminal-line-4)">
</text><text class="terminal-r3" x="24.4" y="142" textLength="12.2" clip-path="url(#terminal-line-5)">│</text><text class="terminal-r9" x="36.6" y="142" textLength="12.2" clip-path="url(#terminal-line-5)">│</text><text class="terminal-r3" x="939.4" y="142" textLength="12.2" clip-path="url(#terminal-line-5)">│</text><text class="terminal-r4" x="976" y="142" textLength="12.2" clip-path="url(#terminal-line-5)">
</text><text class="terminal-r3" x="24.4" y="166.4" textLength="12.2" clip-path="url(#terminal-line-6)">│</text><text class="terminal-r9" x="36.6" y="166.4" textLength="12.2" clip-path="url(#terminal-line-6)">│</text><text class="terminal-r6" x="61" y="166.4" textLength="231.8" clip-path="url(#terminal-line-6)">Fix&#160;before&#160;retrying</text><text class="terminal-r3" x="939.4" y="166.4" textLength="12.2" clip-path="url(#terminal-line-6)">│</text><text class="terminal-r4" x="976" y="166.4" textLength="12.2" clip-path="url(#terminal-line-6)">
</text><text class="terminal-r3" x="24.4" y="190.8" textLength="12.2" clip-path="url(#terminal-line-7)">│</text><text class="terminal-r9" x="36.6" y="190.8" textLength="12.2" clip-path="url(#terminal-line-7)">│</text><text class="terminal-r3" x="939.4" y="190.8" textLength="12.2" clip-path="url(#terminal-line-7)">│</text><text class="terminal-r4" x="976" y="190.8" textLength="12.2" clip-path="url(#terminal-line-7)">
</text><text class="terminal-r3" x="24.4" y="215.2" textLength="12.2" clip-path="url(#terminal-line-8)">│</text><text class="terminal-r9" x="36.6" y="215.2" textLength="12.2" clip-path="url(#terminal-line-8)">│</text><text class="terminal-r10" x="61" y="215.2" textLength="719.8" clip-path="url(#terminal-line-8)">Choose&#160;a&#160;writable&#160;destination&#160;and&#160;review&#160;the&#160;rebuild&#160;again.</text><text class="terminal-r3" x="939.4" y="215.2" textLength="12.2" clip-path="url(#terminal-line-8)">│</text><text class="terminal-r4" x="976" y="215.2" textLength="12.2" clip-path="url(#terminal-line-8)">
</text><text class="terminal-r3" x="24.4" y="239.6" textLength="12.2" clip-path="url(#terminal-line-9)">│</text><text class="terminal-r9" x="36.6" y="239.6" textLength="12.2" clip-path="url(#terminal-line-9)">│</text><text class="terminal-r3" x="939.4" y="239.6" textLength="12.2" clip-path="url(#terminal-line-9)">│</text><text class="terminal-r4" x="976" y="239.6" textLength="12.2" clip-path="url(#terminal-line-9)">
</text><text class="terminal-r3" x="24.4" y="264" textLength="12.2" clip-path="url(#terminal-line-10)">│</text><text class="terminal-r9" x="36.6" y="264" textLength="12.2" clip-path="url(#terminal-line-10)">│</text><text class="terminal-r10" x="61" y="264" textLength="256.2" clip-path="url(#terminal-line-10)">Reviewed&#160;destination:</text><text class="terminal-r3" x="939.4" y="264" textLength="12.2" clip-path="url(#terminal-line-10)">│</text><text class="terminal-r4" x="976" y="264" textLength="12.2" clip-path="url(#terminal-line-10)">
</text><text class="terminal-r3" x="24.4" y="288.4" textLength="12.2" clip-path="url(#terminal-line-11)">│</text><text class="terminal-r9" x="36.6" y="288.4" textLength="12.2" clip-path="url(#terminal-line-11)">│</text><text class="terminal-r10" x="61" y="288.4" textLength="829.6" clip-path="url(#terminal-line-11)">/visual-fixtures/family-records/...ive-layout-testing/rebuilt-backup</text><text class="terminal-r3" x="939.4" y="288.4" textLength="12.2" clip-path="url(#terminal-line-11)">│</text><text class="terminal-r4" x="976" y="288.4" textLength="12.2" clip-path="url(#terminal-line-11)">
</text><text class="terminal-r3" x="24.4" y="312.8" textLength="12.2" clip-path="url(#terminal-line-12)">│</text><text class="terminal-r9" x="36.6" y="312.8" textLength="12.2" clip-path="url(#terminal-line-12)">│</text><text class="terminal-r11" x="915" y="312.8" textLength="24.4" clip-path="url(#terminal-line-12)">▇▇</text><text class="terminal-r3" x="939.4" y="312.8" textLength="12.2" clip-path="url(#terminal-line-12)">│</text><text class="terminal-r4" x="976" y="312.8" textLength="12.2" clip-path="url(#terminal-line-12)">
</text><text class="terminal-r3" x="24.4" y="337.2" textLength="12.2" clip-path="url(#terminal-line-13)">│</text><text class="terminal-r3" x="939.4" y="337.2" textLength="12.2" clip-path="url(#terminal-line-13)">│</text><text class="terminal-r4" x="976" y="337.2" textLength="12.2" clip-path="url(#terminal-line-13)">
</text><text class="terminal-r3" x="24.4" y="361.6" textLength="12.2" clip-path="url(#terminal-line-14)">│</text><text class="terminal-r12" x="402.6" y="361.6" textLength="146.4" clip-path="url(#terminal-line-14)">&#160;Copy&#160;paths&#160;</text><text class="terminal-r3" x="939.4" y="361.6" textLength="12.2" clip-path="url(#terminal-line-14)">│</text><text class="terminal-r4" x="976" y="361.6" textLength="12.2" clip-path="url(#terminal-line-14)">
</text><text class="terminal-r3" x="24.4" y="386" textLength="12.2" clip-path="url(#terminal-line-15)">│</text><text class="terminal-r3" x="939.4" y="386" textLength="12.2" clip-path="url(#terminal-line-15)">│</text><text class="terminal-r4" x="976" y="386" textLength="12.2" clip-path="url(#terminal-line-15)">
</text><text class="terminal-r3" x="24.4" y="410.4" textLength="12.2" clip-path="url(#terminal-line-16)">│</text><text class="terminal-r12" x="390.4" y="410.4" textLength="158.6" clip-path="url(#terminal-line-16)">&#160;Open&#160;folder&#160;</text><text class="terminal-r3" x="939.4" y="410.4" textLength="12.2" clip-path="url(#terminal-line-16)">│</text><text class="terminal-r4" x="976" y="410.4" textLength="12.2" clip-path="url(#terminal-line-16)">
</text><text class="terminal-r3" x="24.4" y="434.8" textLength="12.2" clip-path="url(#terminal-line-17)">│</text><text class="terminal-r3" x="939.4" y="434.8" textLength="12.2" clip-path="url(#terminal-line-17)">│</text><text class="terminal-r4" x="976" y="434.8" textLength="12.2" clip-path="url(#terminal-line-17)">
</text><text class="terminal-r3" x="24.4" y="459.2" textLength="12.2" clip-path="url(#terminal-line-18)">│</text><text class="terminal-r3" x="939.4" y="459.2" textLength="12.2" clip-path="url(#terminal-line-18)">│</text><text class="terminal-r4" x="976" y="459.2" textLength="12.2" clip-path="url(#terminal-line-18)">
</text><text class="terminal-r3" x="24.4" y="483.6" textLength="12.2" clip-path="url(#terminal-line-19)">│</text><text class="terminal-r7" x="36.6" y="483.6" textLength="902.8" clip-path="url(#terminal-line-19)">──────────────────────────────────────────────────────────────────────────</text><text class="terminal-r3" x="939.4" y="483.6" textLength="12.2" clip-path="url(#terminal-line-19)">│</text><text class="terminal-r4" x="976" y="483.6" textLength="12.2" clip-path="url(#terminal-line-19)">
</text><text class="terminal-r3" x="24.4" y="508" textLength="12.2" clip-path="url(#terminal-line-20)">│</text><text class="terminal-r3" x="939.4" y="508" textLength="12.2" clip-path="url(#terminal-line-20)">│</text><text class="terminal-r4" x="976" y="508" textLength="12.2" clip-path="url(#terminal-line-20)">
</text><text class="terminal-r3" x="24.4" y="532.4" textLength="12.2" clip-path="url(#terminal-line-21)">│</text><text class="terminal-r12" x="573.4" y="532.4" textLength="85.4" clip-path="url(#terminal-line-21)">&#160;Close&#160;</text><text class="terminal-r14" x="695.4" y="532.4" textLength="219.6" clip-path="url(#terminal-line-21)">&#160;Edit&#160;destination&#160;</text><text class="terminal-r3" x="939.4" y="532.4" textLength="12.2" clip-path="url(#terminal-line-21)">│</text><text class="terminal-r15" x="951.6" y="532.4" textLength="12.2" clip-path="url(#terminal-line-21)">─</text><text class="terminal-r4" x="976" y="532.4" textLength="12.2" clip-path="url(#terminal-line-21)">
</text><text class="terminal-r3" x="24.4" y="556.8" textLength="927.2" clip-path="url(#terminal-line-22)">└──────────────────────────────────────────────────────────────────────────┘</text><text class="terminal-r4" x="976" y="556.8" textLength="12.2" clip-path="url(#terminal-line-22)">
</text><text class="terminal-r16" x="414.8" y="581.2" textLength="195.2" clip-path="url(#terminal-line-23)">&#160;Review&#160;rebuild&#160;</text>
    </g>
    </g>
</svg>
