<svg class="rich-terminal" viewBox="0 0 994 635.5999999999999" xmlns="http://www.w3.org/2000/svg">
    <!-- Generated with Rich https://www.textualize.io -->
    <style>

    @font-face {
        font-family: "Fira Code";
        src: local("FiraCode-Regular"),
                url("https://cdnjs.cloudflare.com/ajax/libs/firacode/6.2.0/woff2/FiraCode-Regular.woff2") format("woff2"),
                url("https://cdnjs.cloudflare.com/ajax/libs/firacode/6.2.0/woff/FiraCode-Regular.woff") format("woff");
        font-style: normal;
        font-weight: 400;
    }
    @font-face {
        font-family: "Fira Code";
        src: local("FiraCode-Bold"),
                url("https://cdnjs.cloudflare.com/ajax/libs/firacode/6.2.0/woff2/FiraCode-Bold.woff2") format("woff2"),
                url("https://cdnjs.cloudflare.com/ajax/libs/firacode/6.2.0/woff/FiraCode-Bold.woff") format("woff");
        font-style: bold;
        font-weight: 700;
    }

    .terminal-matrix {
        font-family: Fira Code, monospace;
        font-size: 20px;
        line-height: 24.4px;
        font-variant-east-asian: full-width;
    }

    .terminal-title {
        font-size: 18px;
        font-weight: bold;
        font-family: arial;
    }

    .terminal-r1 { fill: #c5c8c6 }
.terminal-r2 { fill: #805818 }
.terminal-r3 { fill: #656959 }
.terminal-r4 { fill: #805818;font-weight: bold }
.terminal-r5 { fill: #cdc6b6 }
.terminal-r6 { fill: #2c3028;font-weight: bold }
.terminal-r7 { fill: #2c3028 }
.terminal-r8 { fill: #8b8a80 }
.terminal-r9 { fill: #797a69 }
.terminal-r10 { fill: #fffaf0;font-weight: bold }
    </style>

    <defs>
    <clipPath id="terminal-clip-terminal">
      <rect x="0" y="0" width="975.0" height="584.5999999999999" />
    </clipPath>
    <clipPath id="terminal-line-0">
    <rect x="0" y="1.5" width="976" height="24.65"/>
            </clipPath>
<clipPath id="terminal-line-1">
    <rect x="0" y="25.9" width="976" height="24.65"/>
            </clipPath>
<clipPath id="terminal-line-2">
    <rect x="0" y="50.3" width="976" height="24.65"/>
            </clipPath>
<clipPath id="terminal-line-3">
    <rect x="0" y="74.7" width="976" height="24.65"/>
            </clipPath>
<clipPath id="terminal-line-4">
    <rect x="0" y="99.1" width="976" height="24.65"/>
            </clipPath>
<clipPath id="terminal-line-5">
    <rect x="0" y="123.5" width="976" height="24.65"/>
            </clipPath>
<clipPath id="terminal-line-6">
    <rect x="0" y="147.9" width="976" height="24.65"/>
            </clipPath>
<clipPath id="terminal-line-7">
    <rect x="0" y="172.3" width="976" height="24.65"/>
            </clipPath>
<clipPath id="terminal-line-8">
    <rect x="0" y="196.7" width="976" height="24.65"/>
            </clipPath>
<clipPath id="terminal-line-9">
    <rect x="0" y="221.1" width="976" height="24.65"/>
            </clipPath>
<clipPath id="terminal-line-10">
    <rect x="0" y="245.5" width="976" height="24.65"/>
            </clipPath>
<clipPath id="terminal-line-11">
    <rect x="0" y="269.9" width="976" height="24.65"/>
            </clipPath>
<clipPath id="terminal-line-12">
    <rect x="0" y="294.3" width="976" height="24.65"/>
            </clipPath>
<clipPath id="terminal-line-13">
    <rect x="0" y="318.7" width="976" height="24.65"/>
            </clipPath>
<clipPath id="terminal-line-14">
    <rect x="0" y="343.1" width="976" height="24.65"/>
            </clipPath>
<clipPath id="terminal-line-15">
    <rect x="0" y="367.5" width="976" height="24.65"/>
            </clipPath>
<clipPath id="terminal-line-16">
    <rect x="0" y="391.9" width="976" height="24.65"/>
            </clipPath>
<clipPath id="terminal-line-17">
    <rect x="0" y="416.3" width="976" height="24.65"/>
            </clipPath>
<clipPath id="terminal-line-18">
    <rect x="0" y="440.7" width="976" height="24.65"/>
            </clipPath>
<clipPath id="terminal-line-19">
    <rect x="0" y="465.1" width="976" height="24.65"/>
            </clipPath>
<clipPath id="terminal-line-20">
    <rect x="0" y="489.5" width="976" height="24.65"/>
            </clipPath>
<clipPath id="terminal-line-21">
    <rect x="0" y="513.9" width="976" height="24.65"/>
            </clipPath>
<clipPath id="terminal-line-22">
    <rect x="0" y="538.3" width="976" height="24.65"/>
            </clipPath>
    </defs>

    <rect fill="#292929" stroke="rgba(255,255,255,0.35)" stroke-width="1" x="1" y="1" width="992" height="633.6" rx="8"/><text class="terminal-title" fill="#c5c8c6" text-anchor="middle" x="496" y="27">dropdown-setting-control-page_size-ethernity-light-80x24</text>
            <g transform="translate(26,22)">
            <circle cx="0" cy="0" r="7" fill="#ff5f57"/>
            <circle cx="22" cy="0" r="7" fill="#febc2e"/>
            <circle cx="44" cy="0" r="7" fill="#28c840"/>
            </g>

    <g transform="translate(9, 41)" clip-path="url(#terminal-clip-terminal)">
    <rect fill="#f4f0e6" x="0" y="1.5" width="12.2" height="24.65" shape-rendering="crispEdges"/><rect fill="#f4f0e6" x="12.2" y="1.5" width="109.8" height="24.65" shape-rendering="crispEdges"/><rect fill="#f4f0e6" x="122" y="1.5" width="61" height="24.65" shape-rendering="crispEdges"/><rect fill="#f4f0e6" x="183" y="1.5" width="280.6" height="24.65" shape-rendering="crispEdges"/><rect fill="#f4f0e6" x="463.6" y="1.5" width="427" height="24.65" shape-rendering="crispEdges"/><rect fill="#f4f0e6" x="890.6" y="1.5" width="73.2" height="24.65" shape-rendering="crispEdges"/><rect fill="#f4f0e6" x="963.8" y="1.5" width="12.2" height="24.65" shape-rendering="crispEdges"/><rect fill="#f4f0e6" x="0" y="25.9" width="24.4" height="24.65" shape-rendering="crispEdges"/><rect fill="#f4f0e6" x="24.4" y="25.9" width="183" height="24.65" shape-rendering="crispEdges"/><rect fill="#f4f0e6" x="207.4" y="25.9" width="24.4" height="24.65" shape-rendering="crispEdges"/><rect fill="#f4f0e6" x="231.8" y="25.9" width="183" height="24.65" shape-rendering="crispEdges"/><rect fill="#f4f0e6" x="414.8" y="25.9" width="24.4" height="24.65" shape-rendering="crispEdges"/><rect fill="#f4f0e6" x="439.2" y="25.9" width="73.2" height="24.65" shape-rendering="crispEdges"/><rect fill="#f4f0e6" x="512.4" y="25.9" width="12.2" height="24.65" shape-rendering="crispEdges"/><rect fill="#e5ddcd" x="524.6" y="25.9" width="12.2" height="24.65" shape-rendering="crispEdges"/><rect fill="#e5ddcd" x="536.8" y="25.9" width="61" height="24.65" shape-rendering="crispEdges"/><rect fill="#e5ddcd" x="597.8" y="25.9" width="12.2" height="24.65" shape-rendering="crispEdges"/><rect fill="#f4f0e6" x="610" y="25.9" width="366" height="24.65" shape-rendering="crispEdges"/><rect fill="#f4f0e6" x="0" y="50.3" width="976" height="24.65" shape-rendering="crispEdges"/><rect fill="#f4f0e6" x="0" y="74.7" width="12.2" height="24.65" shape-rendering="crispEdges"/><rect fill="#e2d9c7" x="12.2" y="74.7" width="61" height="24.65" shape-rendering="crispEdges"/><rect fill="#e2d9c7" x="73.2" y="74.7" width="24.4" height="24.65" shape-rendering="crispEdges"/><rect fill="#f4f0e6" x="97.6" y="74.7" width="12.2" height="24.65" shape-rendering="crispEdges"/><rect fill="#f4f0e6" x="109.8" y="74.7" width="73.2" height="24.65" shape-rendering="crispEdges"/><rect fill="#f4f0e6" x="183" y="74.7" width="24.4" height="24.65" shape-rendering="crispEdges"/><rect fill="#f4f0e6" x="207.4" y="74.7" width="12.2" height="24.65" shape-rendering="crispEdges"/><rect fill="#f4f0e6" x="219.6" y="74.7" width="97.6" height="24.65" shape-rendering="crispEdges"/><rect fill="#f4f0e6" x="317.2" y="74.7" width="24.4" height="24.65" shape-rendering="crispEdges"/><rect fill="#f4f0e6" x="341.6" y="74.7" width="12.2" height="24.65" shape-rendering="crispEdges"/><rect fill="#f4f0e6" x="353.8" y="74.7" width="97.6" height="24.65" shape-rendering="crispEdges"/><rect fill="#f4f0e6" x="451.4" y="74.7" width="24.4" height="24.65" shape-rendering="crispEdges"/><rect fill="#f4f0e6" x="475.8" y="74.7" width="12.2" height="24.65" shape-rendering="crispEdges"/><rect fill="#f4f0e6" x="488" y="74.7" width="97.6" height="24.65" shape-rendering="crispEdges"/><rect fill="#f4f0e6" x="585.6" y="74.7" width="24.4" height="24.65" shape-rendering="crispEdges"/><rect fill="#f4f0e6" x="610" y="74.7" width="12.2" height="24.65" shape-rendering="crispEdges"/><rect fill="#f4f0e6" x="622.2" y="74.7" width="134.2" height="24.65" shape-rendering="crispEdges"/><rect fill="#f4f0e6" x="756.4" y="74.7" width="24.4" height="24.65" shape-rendering="crispEdges"/><rect fill="#f4f0e6" x="780.8" y="74.7" width="195.2" height="24.65" shape-rendering="crispEdges"/><rect fill="#f4f0e6" x="0" y="99.1" width="976" height="24.65" shape-rendering="crispEdges"/><rect fill="#f4f0e6" x="0" y="123.5" width="12.2" height="24.65" shape-rendering="crispEdges"/><rect fill="#f4f0e6" x="12.2" y="123.5" width="61" height="24.65" shape-rendering="crispEdges"/><rect fill="#f4f0e6" x="73.2" y="123.5" width="707.6" height="24.65" shape-rendering="crispEdges"/><rect fill="#eae5d9" x="780.8" y="123.5" width="12.2" height="24.65" shape-rendering="crispEdges"/><rect fill="#eae5d9" x="793" y="123.5" width="158.6" height="24.65" shape-rendering="crispEdges"/><rect fill="#eae5d9" x="951.6" y="123.5" width="12.2" height="24.65" shape-rendering="crispEdges"/><rect fill="#f4f0e6" x="963.8" y="123.5" width="12.2" height="24.65" shape-rendering="crispEdges"/><rect fill="#f4f0e6" x="0" y="147.9" width="976" height="24.65" shape-rendering="crispEdges"/><rect fill="#f4f0e6" x="0" y="172.3" width="12.2" height="24.65" shape-rendering="crispEdges"/><rect fill="#f4f0e6" x="12.2" y="172.3" width="146.4" height="24.65" shape-rendering="crispEdges"/><rect fill="#f4f0e6" x="158.6" y="172.3" width="817.4" height="24.65" shape-rendering="crispEdges"/><rect fill="#f4f0e6" x="0" y="196.7" width="976" height="24.65" shape-rendering="crispEdges"/><rect fill="#f4f0e6" x="0" y="221.1" width="12.2" height="24.65" shape-rendering="crispEdges"/><rect fill="#f4f0e6" x="12.2" y="221.1" width="146.4" height="24.65" shape-rendering="crispEdges"/><rect fill="#f4f0e6" x="158.6" y="221.1" width="146.4" height="24.65" shape-rendering="crispEdges"/><rect fill="#f4f0e6" x="305" y="221.1" width="24.4" height="24.65" shape-rendering="crispEdges"/><rect fill="#eae5d9" x="329.4" y="221.1" width="24.4" height="24.65" shape-rendering="crispEdges"/><rect fill="#eae5d9" x="353.8" y="221.1" width="97.6" height="24.65" shape-rendering="crispEdges"/><rect fill="#eae5d9" x="451.4" y="221.1" width="475.8" height="24.65" shape-rendering="crispEdges"/><rect fill="#eae5d9" x="927.2" y="221.1" width="12.2" height="24.65" shape-rendering="crispEdges"/><rect fill="#eae5d9" x="939.4" y="221.1" width="24.4" height="24.65" shape-rendering="crispEdges"/><rect fill="#f4f0e6" x="963.8" y="221.1" width="12.2" height="24.65" shape-rendering="crispEdges"/><rect fill="#f4f0e6" x="0" y="245.5" width="976" height="24.65" shape-rendering="crispEdges"/><rect fill="#f4f0e6" x="0" y="269.9" width="12.2" height="24.65" shape-rendering="crispEdges"/><rect fill="#f4f0e6" x="12.2" y="269.9" width="122" height="24.65" shape-rendering="crispEdges"/><rect fill="#f4f0e6" x="134.2" y="269.9" width="170.8" height="24.65" shape-rendering="crispEdges"/><rect fill="#f4f0e6" x="305" y="269.9" width="24.4" height="24.65" shape-rendering="crispEdges"/><rect fill="#eae5d9" x="329.4" y="269.9" width="24.4" height="24.65" shape-rendering="crispEdges"/><rect fill="#eae5d9" x="353.8" y="269.9" width="24.4" height="24.65" shape-rendering="crispEdges"/><rect fill="#eae5d9" x="378.2" y="269.9" width="549" height="24.65" shape-rendering="crispEdges"/><rect fill="#eae5d9" x="927.2" y="269.9" width="12.2" height="24.65" shape-rendering="crispEdges"/><rect fill="#eae5d9" x="939.4" y="269.9" width="24.4" height="24.65" shape-rendering="crispEdges"/><rect fill="#f4f0e6" x="963.8" y="269.9" width="12.2" height="24.65" shape-rendering="crispEdges"/><rect fill="#f4f0e6" x="0" y="294.3" width="329.4" height="24.65" shape-rendering="crispEdges"/><rect fill="#eae5d9" x="329.4" y="294.3" width="634.4" height="24.65" shape-rendering="crispEdges"/><rect fill="#f4f0e6" x="963.8" y="294.3" width="12.2" height="24.65" shape-rendering="crispEdges"/><rect fill="#f4f0e6" x="0" y="318.7" width="329.4" height="24.65" shape-rendering="crispEdges"/><rect fill="#eae5d9" x="329.4" y="318.7" width="12.2" height="24.65" shape-rendering="crispEdges"/><rect fill="#7f5818" x="341.6" y="318.7" width="610" height="24.65" shape-rendering="crispEdges"/><rect fill="#eae5d9" x="951.6" y="318.7" width="12.2" height="24.65" shape-rendering="crispEdges"/><rect fill="#f4f0e6" x="963.8" y="318.7" width="12.2" height="24.65" shape-rendering="crispEdges"/><rect fill="#f4f0e6" x="0" y="343.1" width="329.4" height="24.65" shape-rendering="crispEdges"/><rect fill="#eae5d9" x="329.4" y="343.1" width="12.2" height="24.65" shape-rendering="crispEdges"/><rect fill="#7f5818" x="341.6" y="343.1" width="12.2" height="24.65" shape-rendering="crispEdges"/><rect fill="#7f5818" x="353.8" y="343.1" width="24.4" height="24.65" shape-rendering="crispEdges"/><rect fill="#7f5818" x="378.2" y="343.1" width="573.4" height="24.65" shape-rendering="crispEdges"/><rect fill="#eae5d9" x="951.6" y="343.1" width="12.2" height="24.65" shape-rendering="crispEdges"/><rect fill="#f4f0e6" x="963.8" y="343.1" width="12.2" height="24.65" shape-rendering="crispEdges"/><rect fill="#f4f0e6" x="0" y="367.5" width="329.4" height="24.65" shape-rendering="crispEdges"/><rect fill="#eae5d9" x="329.4" y="367.5" width="12.2" height="24.65" shape-rendering="crispEdges"/><rect fill="#7f5818" x="341.6" y="367.5" width="610" height="24.65" shape-rendering="crispEdges"/><rect fill="#eae5d9" x="951.6" y="367.5" width="12.2" height="24.65" shape-rendering="crispEdges"/><rect fill="#f4f0e6" x="963.8" y="367.5" width="12.2" height="24.65" shape-rendering="crispEdges"/><rect fill="#f4f0e6" x="0" y="391.9" width="329.4" height="24.65" shape-rendering="crispEdges"/><rect fill="#eae5d9" x="329.4" y="391.9" width="12.2" height="24.65" shape-rendering="crispEdges"/><rect fill="#eae5d9" x="341.6" y="391.9" width="610" height="24.65" shape-rendering="crispEdges"/><rect fill="#eae5d9" x="951.6" y="391.9" width="12.2" height="24.65" shape-rendering="crispEdges"/><rect fill="#f4f0e6" x="963.8" y="391.9" width="12.2" height="24.65" shape-rendering="crispEdges"/><rect fill="#f4f0e6" x="0" y="416.3" width="329.4" height="24.65" shape-rendering="crispEdges"/><rect fill="#eae5d9" x="329.4" y="416.3" width="12.2" height="24.65" shape-rendering="crispEdges"/><rect fill="#eae5d9" x="341.6" y="416.3" width="12.2" height="24.65" shape-rendering="crispEdges"/><rect fill="#eae5d9" x="353.8" y="416.3" width="73.2" height="24.65" shape-rendering="crispEdges"/><rect fill="#eae5d9" x="427" y="416.3" width="524.6" height="24.65" shape-rendering="crispEdges"/><rect fill="#eae5d9" x="951.6" y="416.3" width="12.2" height="24.65" shape-rendering="crispEdges"/><rect fill="#f4f0e6" x="963.8" y="416.3" width="12.2" height="24.65" shape-rendering="crispEdges"/><rect fill="#f4f0e6" x="0" y="440.7" width="329.4" height="24.65" shape-rendering="crispEdges"/><rect fill="#eae5d9" x="329.4" y="440.7" width="12.2" height="24.65" shape-rendering="crispEdges"/><rect fill="#eae5d9" x="341.6" y="440.7" width="610" height="24.65" shape-rendering="crispEdges"/><rect fill="#eae5d9" x="951.6" y="440.7" width="12.2" height="24.65" shape-rendering="crispEdges"/><rect fill="#f4f0e6" x="963.8" y="440.7" width="12.2" height="24.65" shape-rendering="crispEdges"/><rect fill="#f4f0e6" x="0" y="465.1" width="329.4" height="24.65" shape-rendering="crispEdges"/><rect fill="#eae5d9" x="329.4" y="465.1" width="12.2" height="24.65" shape-rendering="crispEdges"/><rect fill="#eae5d9" x="341.6" y="465.1" width="610" height="24.65" shape-rendering="crispEdges"/><rect fill="#eae5d9" x="951.6" y="465.1" width="12.2" height="24.65" shape-rendering="crispEdges"/><rect fill="#f4f0e6" x="963.8" y="465.1" width="12.2" height="24.65" shape-rendering="crispEdges"/><rect fill="#f4f0e6" x="0" y="489.5" width="12.2" height="24.65" shape-rendering="crispEdges"/><rect fill="#f4f0e6" x="12.2" y="489.5" width="317.2" height="24.65" shape-rendering="crispEdges"/><rect fill="#eae5d9" x="329.4" y="489.5" width="12.2" height="24.65" shape-rendering="crispEdges"/><rect fill="#eae5d9" x="341.6" y="489.5" width="12.2" height="24.65" shape-rendering="crispEdges"/><rect fill="#eae5d9" x="353.8" y="489.5" width="24.4" height="24.65" shape-rendering="crispEdges"/><rect fill="#eae5d9" x="378.2" y="489.5" width="573.4" height="24.65" shape-rendering="crispEdges"/><rect fill="#eae5d9" x="951.6" y="489.5" width="12.2" height="24.65" shape-rendering="crispEdges"/><rect fill="#f4f0e6" x="963.8" y="489.5" width="12.2" height="24.65" shape-rendering="crispEdges"/><rect fill="#f4f0e6" x="0" y="513.9" width="12.2" height="24.65" shape-rendering="crispEdges"/><rect fill="#f4f0e6" x="12.2" y="513.9" width="317.2" height="24.65" shape-rendering="crispEdges"/><rect fill="#eae5d9" x="329.4" y="513.9" width="12.2" height="24.65" shape-rendering="crispEdges"/><rect fill="#eae5d9" x="341.6" y="513.9" width="610" height="24.65" shape-rendering="crispEdges"/><rect fill="#eae5d9" x="951.6" y="513.9" width="12.2" height="24.65" shape-rendering="crispEdges"/><rect fill="#f4f0e6" x="963.8" y="513.9" width="12.2" height="24.65" shape-rendering="crispEdges"/><rect fill="#f4f0e6" x="0" y="538.3" width="12.2" height="24.65" shape-rendering="crispEdges"/><rect fill="#f4f0e6" x="12.2" y="538.3" width="317.2" height="24.65" shape-rendering="crispEdges"/><rect fill="#eae5d9" x="329.4" y="538.3" width="634.4" height="24.65" shape-rendering="crispEdges"/><rect fill="#f4f0e6" x="963.8" y="538.3" width="12.2" height="24.65" shape-rendering="crispEdges"/><rect fill="#eae5d9" x="0" y="562.7" width="36.6" height="24.65" shape-rendering="crispEdges"/><rect fill="#eae5d9" x="36.6" y="562.7" width="158.6" height="24.65" shape-rendering="crispEdges"/><rect fill="#eae5d9" x="195.2" y="562.7" width="12.2" height="24.65" shape-rendering="crispEdges"/><rect fill="#eae5d9" x="207.4" y="562.7" width="24.4" height="24.65" shape-rendering="crispEdges"/><rect fill="#eae5d9" x="231.8" y="562.7" width="134.2" height="24.65" shape-rendering="crispEdges"/><rect fill="#eae5d9" x="366" y="562.7" width="12.2" height="24.65" shape-rendering="crispEdges"/><rect fill="#eae5d9" x="378.2" y="562.7" width="24.4" height="24.65" shape-rendering="crispEdges"/><rect fill="#eae5d9" x="402.6" y="562.7" width="97.6" height="24.65" shape-rendering="crispEdges"/><rect fill="#eae5d9" x="500.2" y="562.7" width="475.8" height="24.65" shape-rendering="crispEdges"/>
    <g class="terminal-matrix">
    <text class="terminal-r2" x="12.2" y="20" textLength="109.8" clip-path="url(#terminal-line-0)">ETHERNITY</text><text class="terminal-r3" x="183" y="20" textLength="280.6" clip-path="url(#terminal-line-0)">Paper&#160;backup&#160;&amp;&#160;recovery</text><text class="terminal-r3" x="890.6" y="20" textLength="73.2" clip-path="url(#terminal-line-0)">v1.2.0</text><text class="terminal-r1" x="976" y="20" textLength="12.2" clip-path="url(#terminal-line-0)">
</text><text class="terminal-r3" x="24.4" y="44.4" textLength="183" clip-path="url(#terminal-line-1)">1&#160;Create&#160;backup</text><text class="terminal-r3" x="231.8" y="44.4" textLength="183" clip-path="url(#terminal-line-1)">2&#160;Restore&#160;files</text><text class="terminal-r3" x="439.2" y="44.4" textLength="73.2" clip-path="url(#terminal-line-1)">Manage</text><text class="terminal-r4" x="536.8" y="44.4" textLength="61" clip-path="url(#terminal-line-1)">Tools</text><text class="terminal-r1" x="976" y="44.4" textLength="12.2" clip-path="url(#terminal-line-1)">
</text><text class="terminal-r5" x="0" y="68.8" textLength="976" clip-path="url(#terminal-line-2)">────────────────────────────────────────────────────────────────────────────────</text><text class="terminal-r1" x="976" y="68.8" textLength="12.2" clip-path="url(#terminal-line-2)">
</text><text class="terminal-r4" x="12.2" y="93.2" textLength="61" clip-path="url(#terminal-line-3)">Print</text><text class="terminal-r3" x="109.8" y="93.2" textLength="73.2" clip-path="url(#terminal-line-3)">Backup</text><text class="terminal-r3" x="219.6" y="93.2" textLength="97.6" clip-path="url(#terminal-line-3)">Recovery</text><text class="terminal-r3" x="353.8" y="93.2" textLength="97.6" clip-path="url(#terminal-line-3)">Security</text><text class="terminal-r3" x="488" y="93.2" textLength="97.6" clip-path="url(#terminal-line-3)">Advanced</text><text class="terminal-r3" x="622.2" y="93.2" textLength="134.2" clip-path="url(#terminal-line-3)">Config&#160;file</text><text class="terminal-r1" x="976" y="93.2" textLength="12.2" clip-path="url(#terminal-line-3)">
</text><text class="terminal-r5" x="0" y="117.6" textLength="976" clip-path="url(#terminal-line-4)">────────────────────────────────────────────────────────────────────────────────</text><text class="terminal-r1" x="976" y="117.6" textLength="12.2" clip-path="url(#terminal-line-4)">
</text><text class="terminal-r6" x="12.2" y="142" textLength="61" clip-path="url(#terminal-line-5)">Print</text><text class="terminal-r7" x="793" y="142" textLength="158.6" clip-path="url(#terminal-line-5)">Reset&#160;section</text><text class="terminal-r1" x="976" y="142" textLength="12.2" clip-path="url(#terminal-line-5)">
</text><text class="terminal-r1" x="976" y="166.4" textLength="12.2" clip-path="url(#terminal-line-6)">
</text><text class="terminal-r6" x="12.2" y="190.8" textLength="146.4" clip-path="url(#terminal-line-7)">PDF&#160;defaults</text><text class="terminal-r1" x="976" y="190.8" textLength="12.2" clip-path="url(#terminal-line-7)">
</text><text class="terminal-r1" x="976" y="215.2" textLength="12.2" clip-path="url(#terminal-line-8)">
</text><text class="terminal-r3" x="12.2" y="239.6" textLength="146.4" clip-path="url(#terminal-line-9)">Print&#160;design</text><text class="terminal-r7" x="353.8" y="239.6" textLength="97.6" clip-path="url(#terminal-line-9)">Sentinel</text><text class="terminal-r8" x="927.2" y="239.6" textLength="12.2" clip-path="url(#terminal-line-9)">▼</text><text class="terminal-r1" x="976" y="239.6" textLength="12.2" clip-path="url(#terminal-line-9)">
</text><text class="terminal-r1" x="976" y="264" textLength="12.2" clip-path="url(#terminal-line-10)">
</text><text class="terminal-r3" x="12.2" y="288.4" textLength="122" clip-path="url(#terminal-line-11)">Paper&#160;size</text><text class="terminal-r7" x="353.8" y="288.4" textLength="24.4" clip-path="url(#terminal-line-11)">A4</text><text class="terminal-r8" x="927.2" y="288.4" textLength="12.2" clip-path="url(#terminal-line-11)">▲</text><text class="terminal-r1" x="976" y="288.4" textLength="12.2" clip-path="url(#terminal-line-11)">
</text><text class="terminal-r9" x="329.4" y="312.8" textLength="634.4" clip-path="url(#terminal-line-12)">┌──────────────────────────────────────────────────┐</text><text class="terminal-r1" x="976" y="312.8" textLength="12.2" clip-path="url(#terminal-line-12)">
</text><text class="terminal-r9" x="329.4" y="337.2" textLength="12.2" clip-path="url(#terminal-line-13)">│</text><text class="terminal-r9" x="951.6" y="337.2" textLength="12.2" clip-path="url(#terminal-line-13)">│</text><text class="terminal-r1" x="976" y="337.2" textLength="12.2" clip-path="url(#terminal-line-13)">
</text><text class="terminal-r9" x="329.4" y="361.6" textLength="12.2" clip-path="url(#terminal-line-14)">│</text><text class="terminal-r10" x="353.8" y="361.6" textLength="24.4" clip-path="url(#terminal-line-14)">A4</text><text class="terminal-r9" x="951.6" y="361.6" textLength="12.2" clip-path="url(#terminal-line-14)">│</text><text class="terminal-r1" x="976" y="361.6" textLength="12.2" clip-path="url(#terminal-line-14)">
</text><text class="terminal-r9" x="329.4" y="386" textLength="12.2" clip-path="url(#terminal-line-15)">│</text><text class="terminal-r9" x="951.6" y="386" textLength="12.2" clip-path="url(#terminal-line-15)">│</text><text class="terminal-r1" x="976" y="386" textLength="12.2" clip-path="url(#terminal-line-15)">
</text><text class="terminal-r9" x="329.4" y="410.4" textLength="12.2" clip-path="url(#terminal-line-16)">│</text><text class="terminal-r9" x="951.6" y="410.4" textLength="12.2" clip-path="url(#terminal-line-16)">│</text><text class="terminal-r1" x="976" y="410.4" textLength="12.2" clip-path="url(#terminal-line-16)">
</text><text class="terminal-r9" x="329.4" y="434.8" textLength="12.2" clip-path="url(#terminal-line-17)">│</text><text class="terminal-r7" x="353.8" y="434.8" textLength="73.2" clip-path="url(#terminal-line-17)">Letter</text><text class="terminal-r9" x="951.6" y="434.8" textLength="12.2" clip-path="url(#terminal-line-17)">│</text><text class="terminal-r1" x="976" y="434.8" textLength="12.2" clip-path="url(#terminal-line-17)">
</text><text class="terminal-r9" x="329.4" y="459.2" textLength="12.2" clip-path="url(#terminal-line-18)">│</text><text class="terminal-r9" x="951.6" y="459.2" textLength="12.2" clip-path="url(#terminal-line-18)">│</text><text class="terminal-r1" x="976" y="459.2" textLength="12.2" clip-path="url(#terminal-line-18)">
</text><text class="terminal-r9" x="329.4" y="483.6" textLength="12.2" clip-path="url(#terminal-line-19)">│</text><text class="terminal-r9" x="951.6" y="483.6" textLength="12.2" clip-path="url(#terminal-line-19)">│</text><text class="terminal-r1" x="976" y="483.6" textLength="12.2" clip-path="url(#terminal-line-19)">
</text><text class="terminal-r5" x="12.2" y="508" textLength="317.2" clip-path="url(#terminal-line-20)">──────────────────────────</text><text class="terminal-r9" x="329.4" y="508" textLength="12.2" clip-path="url(#terminal-line-20)">│</text><text class="terminal-r7" x="353.8" y="508" textLength="24.4" clip-path="url(#terminal-line-20)">A5</text><text class="terminal-r9" x="951.6" y="508" textLength="12.2" clip-path="url(#terminal-line-20)">│</text><text class="terminal-r1" x="976" y="508" textLength="12.2" clip-path="url(#terminal-line-20)">
</text><text class="terminal-r3" x="12.2" y="532.4" textLength="317.2" clip-path="url(#terminal-line-21)">Page&#160;size&#160;for&#160;new&#160;backup&#160;a</text><text class="terminal-r9" x="329.4" y="532.4" textLength="12.2" clip-path="url(#terminal-line-21)">│</text><text class="terminal-r9" x="951.6" y="532.4" textLength="12.2" clip-path="url(#terminal-line-21)">│</text><text class="terminal-r1" x="976" y="532.4" textLength="12.2" clip-path="url(#terminal-line-21)">
</text><text class="terminal-r9" x="329.4" y="556.8" textLength="634.4" clip-path="url(#terminal-line-22)">└──────────────────────────────────────────────────┘</text><text class="terminal-r1" x="976" y="556.8" textLength="12.2" clip-path="url(#terminal-line-22)">
</text><text class="terminal-r4" x="0" y="581.2" textLength="36.6" clip-path="url(#terminal-line-23)">esc</text><text class="terminal-r3" x="36.6" y="581.2" textLength="158.6" clip-path="url(#terminal-line-23)">&#160;Dismiss&#160;menu</text><text class="terminal-r4" x="207.4" y="581.2" textLength="24.4" clip-path="url(#terminal-line-23)">^b</text><text class="terminal-r3" x="231.8" y="581.2" textLength="134.2" clip-path="url(#terminal-line-23)">&#160;Navigation</text><text class="terminal-r4" x="378.2" y="581.2" textLength="24.4" clip-path="url(#terminal-line-23)">^p</text><text class="terminal-r3" x="402.6" y="581.2" textLength="97.6" clip-path="url(#terminal-line-23)">&#160;Actions</text>
    </g>
    </g>
</svg>
