<svg class="rich-terminal" viewBox="0 0 1482 830.8" xmlns="http://www.w3.org/2000/svg">
    <!-- Generated with Rich https://www.textualize.io -->
    <style>

    @font-face {
        font-family: "Fira Code";
        src: local("FiraCode-Regular"),
                url("https://cdnjs.cloudflare.com/ajax/libs/firacode/6.2.0/woff2/FiraCode-Regular.woff2") format("woff2"),
                url("https://cdnjs.cloudflare.com/ajax/libs/firacode/6.2.0/woff/FiraCode-Regular.woff") format("woff");
        font-style: normal;
        font-weight: 400;
    }
    @font-face {
        font-family: "Fira Code";
        src: local("FiraCode-Bold"),
                url("https://cdnjs.cloudflare.com/ajax/libs/firacode/6.2.0/woff2/FiraCode-Bold.woff2") format("woff2"),
                url("https://cdnjs.cloudflare.com/ajax/libs/firacode/6.2.0/woff/FiraCode-Bold.woff") format("woff");
        font-style: bold;
        font-weight: 700;
    }

    .terminal-matrix {
        font-family: Fira Code, monospace;
        font-size: 20px;
        line-height: 24.4px;
        font-variant-east-asian: full-width;
    }

    .terminal-title {
        font-size: 18px;
        font-weight: bold;
        font-family: arial;
    }

    .terminal-r1 { fill: #c5c8c6 }
.terminal-r2 { fill: #e0b56d }
.terminal-r3 { fill: #a7aa99 }
.terminal-r4 { fill: #e0b56d;font-weight: bold }
.terminal-r5 { fill: #3b3e34 }
.terminal-r6 { fill: #eae6da;font-weight: bold }
.terminal-r7 { fill: #20231f }
.terminal-r8 { fill: #eae6da }
.terminal-r9 { fill: #eae6da;text-decoration: underline; }
.terminal-r10 { fill: #000402 }
.terminal-r11 { fill: #3d403a }
.terminal-r12 { fill: #1c211a }
    </style>

    <defs>
    <clipPath id="terminal-clip-terminal">
      <rect x="0" y="0" width="1463.0" height="779.8" />
    </clipPath>
    <clipPath id="terminal-line-0">
    <rect x="0" y="1.5" width="1464" height="24.65"/>
            </clipPath>
<clipPath id="terminal-line-1">
    <rect x="0" y="25.9" width="1464" height="24.65"/>
            </clipPath>
<clipPath id="terminal-line-2">
    <rect x="0" y="50.3" width="1464" height="24.65"/>
            </clipPath>
<clipPath id="terminal-line-3">
    <rect x="0" y="74.7" width="1464" height="24.65"/>
            </clipPath>
<clipPath id="terminal-line-4">
    <rect x="0" y="99.1" width="1464" height="24.65"/>
            </clipPath>
<clipPath id="terminal-line-5">
    <rect x="0" y="123.5" width="1464" height="24.65"/>
            </clipPath>
<clipPath id="terminal-line-6">
    <rect x="0" y="147.9" width="1464" height="24.65"/>
            </clipPath>
<clipPath id="terminal-line-7">
    <rect x="0" y="172.3" width="1464" height="24.65"/>
            </clipPath>
<clipPath id="terminal-line-8">
    <rect x="0" y="196.7" width="1464" height="24.65"/>
            </clipPath>
<clipPath id="terminal-line-9">
    <rect x="0" y="221.1" width="1464" height="24.65"/>
            </clipPath>
<clipPath id="terminal-line-10">
    <rect x="0" y="245.5" width="1464" height="24.65"/>
            </clipPath>
<clipPath id="terminal-line-11">
    <rect x="0" y="269.9" width="1464" height="24.65"/>
            </clipPath>
<clipPath id="terminal-line-12">
    <rect x="0" y="294.3" width="1464" height="24.65"/>
            </clipPath>
<clipPath id="terminal-line-13">
    <rect x="0" y="318.7" width="1464" height="24.65"/>
            </clipPath>
<clipPath id="terminal-line-14">
    <rect x="0" y="343.1" width="1464" height="24.65"/>
            </clipPath>
<clipPath id="terminal-line-15">
    <rect x="0" y="367.5" width="1464" height="24.65"/>
            </clipPath>
<clipPath id="terminal-line-16">
    <rect x="0" y="391.9" width="1464" height="24.65"/>
            </clipPath>
<clipPath id="terminal-line-17">
    <rect x="0" y="416.3" width="1464" height="24.65"/>
            </clipPath>
<clipPath id="terminal-line-18">
    <rect x="0" y="440.7" width="1464" height="24.65"/>
            </clipPath>
<clipPath id="terminal-line-19">
    <rect x="0" y="465.1" width="1464" height="24.65"/>
            </clipPath>
<clipPath id="terminal-line-20">
    <rect x="0" y="489.5" width="1464" height="24.65"/>
            </clipPath>
<clipPath id="terminal-line-21">
    <rect x="0" y="513.9" width="1464" height="24.65"/>
            </clipPath>
<clipPath id="terminal-line-22">
    <rect x="0" y="538.3" width="1464" height="24.65"/>
            </clipPath>
<clipPath id="terminal-line-23">
    <rect x="0" y="562.7" width="1464" height="24.65"/>
            </clipPath>
<clipPath id="terminal-line-24">
    <rect x="0" y="587.1" width="1464" height="24.65"/>
            </clipPath>
<clipPath id="terminal-line-25">
    <rect x="0" y="611.5" width="1464" height="24.65"/>
            </clipPath>
<clipPath id="terminal-line-26">
    <rect x="0" y="635.9" width="1464" height="24.65"/>
            </clipPath>
<clipPath id="terminal-line-27">
    <rect x="0" y="660.3" width="1464" height="24.65"/>
            </clipPath>
<clipPath id="terminal-line-28">
    <rect x="0" y="684.7" width="1464" height="24.65"/>
            </clipPath>
<clipPath id="terminal-line-29">
    <rect x="0" y="709.1" width="1464" height="24.65"/>
            </clipPath>
<clipPath id="terminal-line-30">
    <rect x="0" y="733.5" width="1464" height="24.65"/>
            </clipPath>
    </defs>

    <rect fill="#292929" stroke="rgba(255,255,255,0.35)" stroke-width="1" x="1" y="1" width="1480" height="828.8" rx="8"/><text class="terminal-title" fill="#c5c8c6" text-anchor="middle" x="740" y="27">Ethernity</text>
            <g transform="translate(26,22)">
            <circle cx="0" cy="0" r="7" fill="#ff5f57"/>
            <circle cx="22" cy="0" r="7" fill="#febc2e"/>
            <circle cx="44" cy="0" r="7" fill="#28c840"/>
            </g>

    <g transform="translate(9, 41)" clip-path="url(#terminal-clip-terminal)">
    <rect fill="#171918" x="0" y="1.5" width="1464" height="24.65" shape-rendering="crispEdges"/><rect fill="#171918" x="0" y="25.9" width="24.4" height="24.65" shape-rendering="crispEdges"/><rect fill="#171918" x="24.4" y="25.9" width="109.8" height="24.65" shape-rendering="crispEdges"/><rect fill="#171918" x="134.2" y="25.9" width="61" height="24.65" shape-rendering="crispEdges"/><rect fill="#171918" x="195.2" y="25.9" width="158.6" height="24.65" shape-rendering="crispEdges"/><rect fill="#171918" x="353.8" y="25.9" width="1012.6" height="24.65" shape-rendering="crispEdges"/><rect fill="#171918" x="1366.4" y="25.9" width="73.2" height="24.65" shape-rendering="crispEdges"/><rect fill="#171918" x="1439.6" y="25.9" width="24.4" height="24.65" shape-rendering="crispEdges"/><rect fill="#171918" x="0" y="50.3" width="1464" height="24.65" shape-rendering="crispEdges"/><rect fill="#171918" x="0" y="74.7" width="24.4" height="24.65" shape-rendering="crispEdges"/><rect fill="#2f2b22" x="24.4" y="74.7" width="12.2" height="24.65" shape-rendering="crispEdges"/><rect fill="#2f2b22" x="36.6" y="74.7" width="207.4" height="24.65" shape-rendering="crispEdges"/><rect fill="#2f2b22" x="244" y="74.7" width="12.2" height="24.65" shape-rendering="crispEdges"/><rect fill="#171918" x="256.2" y="74.7" width="36.6" height="24.65" shape-rendering="crispEdges"/><rect fill="#171918" x="292.8" y="74.7" width="207.4" height="24.65" shape-rendering="crispEdges"/><rect fill="#171918" x="500.2" y="74.7" width="48.8" height="24.65" shape-rendering="crispEdges"/><rect fill="#171918" x="549" y="74.7" width="97.6" height="24.65" shape-rendering="crispEdges"/><rect fill="#171918" x="646.6" y="74.7" width="48.8" height="24.65" shape-rendering="crispEdges"/><rect fill="#171918" x="695.4" y="74.7" width="85.4" height="24.65" shape-rendering="crispEdges"/><rect fill="#171918" x="780.8" y="74.7" width="683.2" height="24.65" shape-rendering="crispEdges"/><rect fill="#171918" x="0" y="99.1" width="1464" height="24.65" shape-rendering="crispEdges"/><rect fill="#171918" x="0" y="123.5" width="1464" height="24.65" shape-rendering="crispEdges"/><rect fill="#171918" x="0" y="147.9" width="256.2" height="24.65" shape-rendering="crispEdges"/><rect fill="#171918" x="256.2" y="147.9" width="12.2" height="24.65" shape-rendering="crispEdges"/><rect fill="#171918" x="268.4" y="147.9" width="841.8" height="24.65" shape-rendering="crispEdges"/><rect fill="#20231f" x="1110.2" y="147.9" width="12.2" height="24.65" shape-rendering="crispEdges"/><rect fill="#20231f" x="1122.4" y="147.9" width="341.6" height="24.65" shape-rendering="crispEdges"/><rect fill="#171918" x="0" y="172.3" width="12.2" height="24.65" shape-rendering="crispEdges"/><rect fill="#171918" x="12.2" y="172.3" width="97.6" height="24.65" shape-rendering="crispEdges"/><rect fill="#171918" x="109.8" y="172.3" width="146.4" height="24.65" shape-rendering="crispEdges"/><rect fill="#171918" x="256.2" y="172.3" width="12.2" height="24.65" shape-rendering="crispEdges"/><rect fill="#171918" x="268.4" y="172.3" width="24.4" height="24.65" shape-rendering="crispEdges"/><rect fill="#171918" x="292.8" y="172.3" width="280.6" height="24.65" shape-rendering="crispEdges"/><rect fill="#171918" x="573.4" y="172.3" width="536.8" height="24.65" shape-rendering="crispEdges"/><rect fill="#20231f" x="1110.2" y="172.3" width="12.2" height="24.65" shape-rendering="crispEdges"/><rect fill="#20231f" x="1122.4" y="172.3" width="24.4" height="24.65" shape-rendering="crispEdges"/><rect fill="#20231f" x="1146.8" y="172.3" width="85.4" height="24.65" shape-rendering="crispEdges"/><rect fill="#20231f" x="1232.2" y="172.3" width="183" height="24.65" shape-rendering="crispEdges"/><rect fill="#594a2c" x="1415.2" y="172.3" width="24.4" height="24.65" shape-rendering="crispEdges"/><rect fill="#20231f" x="1439.6" y="172.3" width="24.4" height="24.65" shape-rendering="crispEdges"/><rect fill="#171918" x="0" y="196.7" width="256.2" height="24.65" shape-rendering="crispEdges"/><rect fill="#171918" x="256.2" y="196.7" width="12.2" height="24.65" shape-rendering="crispEdges"/><rect fill="#171918" x="268.4" y="196.7" width="841.8" height="24.65" shape-rendering="crispEdges"/><rect fill="#20231f" x="1110.2" y="196.7" width="12.2" height="24.65" shape-rendering="crispEdges"/><rect fill="#20231f" x="1122.4" y="196.7" width="292.8" height="24.65" shape-rendering="crispEdges"/><rect fill="#594a2c" x="1415.2" y="196.7" width="24.4" height="24.65" shape-rendering="crispEdges"/><rect fill="#20231f" x="1439.6" y="196.7" width="24.4" height="24.65" shape-rendering="crispEdges"/><rect fill="#171918" x="0" y="221.1" width="12.2" height="24.65" shape-rendering="crispEdges"/><rect fill="#353024" x="12.2" y="221.1" width="12.2" height="24.65" shape-rendering="crispEdges"/><rect fill="#353024" x="24.4" y="221.1" width="97.6" height="24.65" shape-rendering="crispEdges"/><rect fill="#353024" x="122" y="221.1" width="109.8" height="24.65" shape-rendering="crispEdges"/><rect fill="#353024" x="231.8" y="221.1" width="12.2" height="24.65" shape-rendering="crispEdges"/><rect fill="#171918" x="244" y="221.1" width="12.2" height="24.65" shape-rendering="crispEdges"/><rect fill="#171918" x="256.2" y="221.1" width="12.2" height="24.65" shape-rendering="crispEdges"/><rect fill="#171918" x="268.4" y="221.1" width="24.4" height="24.65" shape-rendering="crispEdges"/><rect fill="#171918" x="292.8" y="221.1" width="695.4" height="24.65" shape-rendering="crispEdges"/><rect fill="#171918" x="988.2" y="221.1" width="122" height="24.65" shape-rendering="crispEdges"/><rect fill="#20231f" x="1110.2" y="221.1" width="12.2" height="24.65" shape-rendering="crispEdges"/><rect fill="#20231f" x="1122.4" y="221.1" width="24.4" height="24.65" shape-rendering="crispEdges"/><rect fill="#20231f" x="1146.8" y="221.1" width="61" height="24.65" shape-rendering="crispEdges"/><rect fill="#20231f" x="1207.8" y="221.1" width="207.4" height="24.65" shape-rendering="crispEdges"/><rect fill="#594a2c" x="1415.2" y="221.1" width="24.4" height="24.65" shape-rendering="crispEdges"/><rect fill="#20231f" x="1439.6" y="221.1" width="24.4" height="24.65" shape-rendering="crispEdges"/><rect fill="#171918" x="0" y="245.5" width="256.2" height="24.65" shape-rendering="crispEdges"/><rect fill="#171918" x="256.2" y="245.5" width="12.2" height="24.65" shape-rendering="crispEdges"/><rect fill="#171918" x="268.4" y="245.5" width="841.8" height="24.65" shape-rendering="crispEdges"/><rect fill="#20231f" x="1110.2" y="245.5" width="12.2" height="24.65" shape-rendering="crispEdges"/><rect fill="#20231f" x="1122.4" y="245.5" width="24.4" height="24.65" shape-rendering="crispEdges"/><rect fill="#20231f" x="1146.8" y="245.5" width="219.6" height="24.65" shape-rendering="crispEdges"/><rect fill="#20231f" x="1366.4" y="245.5" width="48.8" height="24.65" shape-rendering="crispEdges"/><rect fill="#594a2c" x="1415.2" y="245.5" width="24.4" height="24.65" shape-rendering="crispEdges"/><rect fill="#20231f" x="1439.6" y="245.5" width="24.4" height="24.65" shape-rendering="crispEdges"/><rect fill="#171918" x="0" y="269.9" width="24.4" height="24.65" shape-rendering="crispEdges"/><rect fill="#171918" x="24.4" y="269.9" width="134.2" height="24.65" shape-rendering="crispEdges"/><rect fill="#171918" x="158.6" y="269.9" width="73.2" height="24.65" shape-rendering="crispEdges"/><rect fill="#171918" x="231.8" y="269.9" width="24.4" height="24.65" shape-rendering="crispEdges"/><rect fill="#171918" x="256.2" y="269.9" width="12.2" height="24.65" shape-rendering="crispEdges"/><rect fill="#171918" x="268.4" y="269.9" width="24.4" height="24.65" shape-rendering="crispEdges"/><rect fill="#171918" x="292.8" y="269.9" width="61" height="24.65" shape-rendering="crispEdges"/><rect fill="#171918" x="353.8" y="269.9" width="134.2" height="24.65" shape-rendering="crispEdges"/><rect fill="#171918" x="488" y="269.9" width="12.2" height="24.65" shape-rendering="crispEdges"/><rect fill="#171918" x="500.2" y="269.9" width="219.6" height="24.65" shape-rendering="crispEdges"/><rect fill="#171918" x="719.8" y="269.9" width="122" height="24.65" shape-rendering="crispEdges"/><rect fill="#171918" x="841.8" y="269.9" width="12.2" height="24.65" shape-rendering="crispEdges"/><rect fill="#353024" x="854" y="269.9" width="24.4" height="24.65" shape-rendering="crispEdges"/><rect fill="#353024" x="878.4" y="269.9" width="183" height="24.65" shape-rendering="crispEdges"/><rect fill="#353024" x="1061.4" y="269.9" width="24.4" height="24.65" shape-rendering="crispEdges"/><rect fill="#171918" x="1085.8" y="269.9" width="24.4" height="24.65" shape-rendering="crispEdges"/><rect fill="#20231f" x="1110.2" y="269.9" width="12.2" height="24.65" shape-rendering="crispEdges"/><rect fill="#20231f" x="1122.4" y="269.9" width="292.8" height="24.65" shape-rendering="crispEdges"/><rect fill="#594a2c" x="1415.2" y="269.9" width="24.4" height="24.65" shape-rendering="crispEdges"/><rect fill="#20231f" x="1439.6" y="269.9" width="24.4" height="24.65" shape-rendering="crispEdges"/><rect fill="#171918" x="0" y="294.3" width="256.2" height="24.65" shape-rendering="crispEdges"/><rect fill="#171918" x="256.2" y="294.3" width="12.2" height="24.65" shape-rendering="crispEdges"/><rect fill="#171918" x="268.4" y="294.3" width="24.4" height="24.65" shape-rendering="crispEdges"/><rect fill="#171918" x="292.8" y="294.3" width="195.2" height="24.65" shape-rendering="crispEdges"/><rect fill="#171918" x="488" y="294.3" width="12.2" height="24.65" shape-rendering="crispEdges"/><rect fill="#171918" x="500.2" y="294.3" width="341.6" height="24.65" shape-rendering="crispEdges"/><rect fill="#171918" x="841.8" y="294.3" width="12.2" height="24.65" shape-rendering="crispEdges"/><rect fill="#353024" x="854" y="294.3" width="12.2" height="24.65" shape-rendering="crispEdges"/><rect fill="#353024" x="866.2" y="294.3" width="207.4" height="24.65" shape-rendering="crispEdges"/><rect fill="#353024" x="1073.6" y="294.3" width="12.2" height="24.65" shape-rendering="crispEdges"/><rect fill="#171918" x="1085.8" y="294.3" width="24.4" height="24.65" shape-rendering="crispEdges"/><rect fill="#20231f" x="1110.2" y="294.3" width="12.2" height="24.65" shape-rendering="crispEdges"/><rect fill="#20231f" x="1122.4" y="294.3" width="24.4" height="24.65" shape-rendering="crispEdges"/><rect fill="#20231f" x="1146.8" y="294.3" width="97.6" height="24.65" shape-rendering="crispEdges"/><rect fill="#20231f" x="1244.4" y="294.3" width="170.8" height="24.65" shape-rendering="crispEdges"/><rect fill="#594a2c" x="1415.2" y="294.3" width="24.4" height="24.65" shape-rendering="crispEdges"/><rect fill="#20231f" x="1439.6" y="294.3" width="24.4" height="24.65" shape-rendering="crispEdges"/><rect fill="#171918" x="0" y="318.7" width="24.4" height="24.65" shape-rendering="crispEdges"/><rect fill="#171918" x="24.4" y="318.7" width="170.8" height="24.65" shape-rendering="crispEdges"/><rect fill="#171918" x="195.2" y="318.7" width="36.6" height="24.65" shape-rendering="crispEdges"/><rect fill="#171918" x="231.8" y="318.7" width="24.4" height="24.65" shape-rendering="crispEdges"/><rect fill="#171918" x="256.2" y="318.7" width="12.2" height="24.65" shape-rendering="crispEdges"/><rect fill="#171918" x="268.4" y="318.7" width="841.8" height="24.65" shape-rendering="crispEdges"/><rect fill="#20231f" x="1110.2" y="318.7" width="12.2" height="24.65" shape-rendering="crispEdges"/><rect fill="#20231f" x="1122.4" y="318.7" width="24.4" height="24.65" shape-rendering="crispEdges"/><rect fill="#20231f" x="1146.8" y="318.7" width="268.4" height="24.65" shape-rendering="crispEdges"/><rect fill="#594a2c" x="1415.2" y="318.7" width="24.4" height="24.65" shape-rendering="crispEdges"/><rect fill="#20231f" x="1439.6" y="318.7" width="24.4" height="24.65" shape-rendering="crispEdges"/><rect fill="#171918" x="0" y="343.1" width="256.2" height="24.65" shape-rendering="crispEdges"/><rect fill="#171918" x="256.2" y="343.1" width="12.2" height="24.65" shape-rendering="crispEdges"/><rect fill="#171918" x="268.4" y="343.1" width="24.4" height="24.65" shape-rendering="crispEdges"/><rect fill="#171918" x="292.8" y="343.1" width="195.2" height="24.65" shape-rendering="crispEdges"/><rect fill="#171918" x="488" y="343.1" width="622.2" height="24.65" shape-rendering="crispEdges"/><rect fill="#20231f" x="1110.2" y="343.1" width="12.2" height="24.65" shape-rendering="crispEdges"/><rect fill="#20231f" x="1122.4" y="343.1" width="24.4" height="24.65" shape-rendering="crispEdges"/><rect fill="#20231f" x="1146.8" y="343.1" width="158.6" height="24.65" shape-rendering="crispEdges"/><rect fill="#20231f" x="1305.4" y="343.1" width="109.8" height="24.65" shape-rendering="crispEdges"/><rect fill="#594a2c" x="1415.2" y="343.1" width="24.4" height="24.65" shape-rendering="crispEdges"/><rect fill="#20231f" x="1439.6" y="343.1" width="24.4" height="24.65" shape-rendering="crispEdges"/><rect fill="#171918" x="0" y="367.5" width="24.4" height="24.65" shape-rendering="crispEdges"/><rect fill="#171918" x="24.4" y="367.5" width="109.8" height="24.65" shape-rendering="crispEdges"/><rect fill="#171918" x="134.2" y="367.5" width="97.6" height="24.65" shape-rendering="crispEdges"/><rect fill="#171918" x="231.8" y="367.5" width="24.4" height="24.65" shape-rendering="crispEdges"/><rect fill="#171918" x="256.2" y="367.5" width="12.2" height="24.65" shape-rendering="crispEdges"/><rect fill="#171918" x="268.4" y="367.5" width="841.8" height="24.65" shape-rendering="crispEdges"/><rect fill="#20231f" x="1110.2" y="367.5" width="12.2" height="24.65" shape-rendering="crispEdges"/><rect fill="#20231f" x="1122.4" y="367.5" width="24.4" height="24.65" shape-rendering="crispEdges"/><rect fill="#20231f" x="1146.8" y="367.5" width="158.6" height="24.65" shape-rendering="crispEdges"/><rect fill="#20231f" x="1305.4" y="367.5" width="109.8" height="24.65" shape-rendering="crispEdges"/><rect fill="#594a2c" x="1415.2" y="367.5" width="24.4" height="24.65" shape-rendering="crispEdges"/><rect fill="#20231f" x="1439.6" y="367.5" width="24.4" height="24.65" shape-rendering="crispEdges"/><rect fill="#171918" x="0" y="391.9" width="256.2" height="24.65" shape-rendering="crispEdges"/><rect fill="#171918" x="256.2" y="391.9" width="12.2" height="24.65" shape-rendering="crispEdges"/><rect fill="#171918" x="268.4" y="391.9" width="48.8" height="24.65" shape-rendering="crispEdges"/><rect fill="#171918" x="317.2" y="391.9" width="610" height="24.65" shape-rendering="crispEdges"/><rect fill="#171918" x="927.2" y="391.9" width="158.6" height="24.65" shape-rendering="crispEdges"/><rect fill="#171918" x="1085.8" y="391.9" width="24.4" height="24.65" shape-rendering="crispEdges"/><rect fill="#20231f" x="1110.2" y="391.9" width="12.2" height="24.65" shape-rendering="crispEdges"/><rect fill="#20231f" x="1122.4" y="391.9" width="292.8" height="24.65" shape-rendering="crispEdges"/><rect fill="#594a2c" x="1415.2" y="391.9" width="24.4" height="24.65" shape-rendering="crispEdges"/><rect fill="#20231f" x="1439.6" y="391.9" width="24.4" height="24.65" shape-rendering="crispEdges"/><rect fill="#171918" x="0" y="416.3" width="256.2" height="24.65" shape-rendering="crispEdges"/><rect fill="#171918" x="256.2" y="416.3" width="12.2" height="24.65" shape-rendering="crispEdges"/><rect fill="#171918" x="268.4" y="416.3" width="48.8" height="24.65" shape-rendering="crispEdges"/><rect fill="#171918" x="317.2" y="416.3" width="610" height="24.65" shape-rendering="crispEdges"/><rect fill="#171918" x="927.2" y="416.3" width="158.6" height="24.65" shape-rendering="crispEdges"/><rect fill="#171918" x="1085.8" y="416.3" width="24.4" height="24.65" shape-rendering="crispEdges"/><rect fill="#20231f" x="1110.2" y="416.3" width="12.2" height="24.65" shape-rendering="crispEdges"/><rect fill="#20231f" x="1122.4" y="416.3" width="24.4" height="24.65" shape-rendering="crispEdges"/><rect fill="#20231f" x="1146.8" y="416.3" width="61" height="24.65" shape-rendering="crispEdges"/><rect fill="#20231f" x="1207.8" y="416.3" width="207.4" height="24.65" shape-rendering="crispEdges"/><rect fill="#594a2c" x="1415.2" y="416.3" width="24.4" height="24.65" shape-rendering="crispEdges"/><rect fill="#20231f" x="1439.6" y="416.3" width="24.4" height="24.65" shape-rendering="crispEdges"/><rect fill="#171918" x="0" y="440.7" width="256.2" height="24.65" shape-rendering="crispEdges"/><rect fill="#171918" x="256.2" y="440.7" width="12.2" height="24.65" shape-rendering="crispEdges"/><rect fill="#171918" x="268.4" y="440.7" width="48.8" height="24.65" shape-rendering="crispEdges"/><rect fill="#171918" x="317.2" y="440.7" width="463.6" height="24.65" shape-rendering="crispEdges"/><rect fill="#171918" x="780.8" y="440.7" width="305" height="24.65" shape-rendering="crispEdges"/><rect fill="#171918" x="1085.8" y="440.7" width="24.4" height="24.65" shape-rendering="crispEdges"/><rect fill="#20231f" x="1110.2" y="440.7" width="12.2" height="24.65" shape-rendering="crispEdges"/><rect fill="#20231f" x="1122.4" y="440.7" width="24.4" height="24.65" shape-rendering="crispEdges"/><rect fill="#20231f" x="1146.8" y="440.7" width="158.6" height="24.65" shape-rendering="crispEdges"/><rect fill="#20231f" x="1305.4" y="440.7" width="109.8" height="24.65" shape-rendering="crispEdges"/><rect fill="#594a2c" x="1415.2" y="440.7" width="24.4" height="24.65" shape-rendering="crispEdges"/><rect fill="#20231f" x="1439.6" y="440.7" width="24.4" height="24.65" shape-rendering="crispEdges"/><rect fill="#171918" x="0" y="465.1" width="256.2" height="24.65" shape-rendering="crispEdges"/><rect fill="#171918" x="256.2" y="465.1" width="12.2" height="24.65" shape-rendering="crispEdges"/><rect fill="#171918" x="268.4" y="465.1" width="48.8" height="24.65" shape-rendering="crispEdges"/><rect fill="#171918" x="317.2" y="465.1" width="768.6" height="24.65" shape-rendering="crispEdges"/><rect fill="#171918" x="1085.8" y="465.1" width="24.4" height="24.65" shape-rendering="crispEdges"/><rect fill="#20231f" x="1110.2" y="465.1" width="12.2" height="24.65" shape-rendering="crispEdges"/><rect fill="#20231f" x="1122.4" y="465.1" width="292.8" height="24.65" shape-rendering="crispEdges"/><rect fill="#594a2c" x="1415.2" y="465.1" width="24.4" height="24.65" shape-rendering="crispEdges"/><rect fill="#20231f" x="1439.6" y="465.1" width="24.4" height="24.65" shape-rendering="crispEdges"/><rect fill="#171918" x="0" y="489.5" width="256.2" height="24.65" shape-rendering="crispEdges"/><rect fill="#171918" x="256.2" y="489.5" width="12.2" height="24.65" shape-rendering="crispEdges"/><rect fill="#171918" x="268.4" y="489.5" width="48.8" height="24.65" shape-rendering="crispEdges"/><rect fill="#20231f" x="317.2" y="489.5" width="12.2" height="24.65" shape-rendering="crispEdges"/><rect fill="#20231f" x="329.4" y="489.5" width="158.6" height="24.65" shape-rendering="crispEdges"/><rect fill="#20231f" x="488" y="489.5" width="12.2" height="24.65" shape-rendering="crispEdges"/><rect fill="#171918" x="500.2" y="489.5" width="610" height="24.65" shape-rendering="crispEdges"/><rect fill="#20231f" x="1110.2" y="489.5" width="12.2" height="24.65" shape-rendering="crispEdges"/><rect fill="#20231f" x="1122.4" y="489.5" width="24.4" height="24.65" shape-rendering="crispEdges"/><rect fill="#20231f" x="1146.8" y="489.5" width="85.4" height="24.65" shape-rendering="crispEdges"/><rect fill="#20231f" x="1232.2" y="489.5" width="183" height="24.65" shape-rendering="crispEdges"/><rect fill="#000402" x="1415.2" y="489.5" width="24.4" height="24.65" shape-rendering="crispEdges"/><rect fill="#20231f" x="1439.6" y="489.5" width="24.4" height="24.65" shape-rendering="crispEdges"/><rect fill="#171918" x="0" y="513.9" width="256.2" height="24.65" shape-rendering="crispEdges"/><rect fill="#171918" x="256.2" y="513.9" width="12.2" height="24.65" shape-rendering="crispEdges"/><rect fill="#171918" x="268.4" y="513.9" width="48.8" height="24.65" shape-rendering="crispEdges"/><rect fill="#20231f" x="317.2" y="513.9" width="12.2" height="24.65" shape-rendering="crispEdges"/><rect fill="#20231f" x="329.4" y="513.9" width="158.6" height="24.65" shape-rendering="crispEdges"/><rect fill="#20231f" x="488" y="513.9" width="12.2" height="24.65" shape-rendering="crispEdges"/><rect fill="#171918" x="500.2" y="513.9" width="610" height="24.65" shape-rendering="crispEdges"/><rect fill="#20231f" x="1110.2" y="513.9" width="12.2" height="24.65" shape-rendering="crispEdges"/><rect fill="#20231f" x="1122.4" y="513.9" width="24.4" height="24.65" shape-rendering="crispEdges"/><rect fill="#20231f" x="1146.8" y="513.9" width="268.4" height="24.65" shape-rendering="crispEdges"/><rect fill="#000402" x="1415.2" y="513.9" width="24.4" height="24.65" shape-rendering="crispEdges"/><rect fill="#20231f" x="1439.6" y="513.9" width="24.4" height="24.65" shape-rendering="crispEdges"/><rect fill="#171918" x="0" y="538.3" width="256.2" height="24.65" shape-rendering="crispEdges"/><rect fill="#171918" x="256.2" y="538.3" width="12.2" height="24.65" shape-rendering="crispEdges"/><rect fill="#171918" x="268.4" y="538.3" width="841.8" height="24.65" shape-rendering="crispEdges"/><rect fill="#20231f" x="1110.2" y="538.3" width="12.2" height="24.65" shape-rendering="crispEdges"/><rect fill="#20231f" x="1122.4" y="538.3" width="24.4" height="24.65" shape-rendering="crispEdges"/><rect fill="#20231f" x="1146.8" y="538.3" width="24.4" height="24.65" shape-rendering="crispEdges"/><rect fill="#20231f" x="1171.2" y="538.3" width="244" height="24.65" shape-rendering="crispEdges"/><rect fill="#000402" x="1415.2" y="538.3" width="24.4" height="24.65" shape-rendering="crispEdges"/><rect fill="#20231f" x="1439.6" y="538.3" width="24.4" height="24.65" shape-rendering="crispEdges"/><rect fill="#171918" x="0" y="562.7" width="256.2" height="24.65" shape-rendering="crispEdges"/><rect fill="#171918" x="256.2" y="562.7" width="12.2" height="24.65" shape-rendering="crispEdges"/><rect fill="#171918" x="268.4" y="562.7" width="841.8" height="24.65" shape-rendering="crispEdges"/><rect fill="#20231f" x="1110.2" y="562.7" width="12.2" height="24.65" shape-rendering="crispEdges"/><rect fill="#20231f" x="1122.4" y="562.7" width="292.8" height="24.65" shape-rendering="crispEdges"/><rect fill="#000402" x="1415.2" y="562.7" width="24.4" height="24.65" shape-rendering="crispEdges"/><rect fill="#20231f" x="1439.6" y="562.7" width="24.4" height="24.65" shape-rendering="crispEdges"/><rect fill="#171918" x="0" y="587.1" width="256.2" height="24.65" shape-rendering="crispEdges"/><rect fill="#171918" x="256.2" y="587.1" width="12.2" height="24.65" shape-rendering="crispEdges"/><rect fill="#171918" x="268.4" y="587.1" width="841.8" height="24.65" shape-rendering="crispEdges"/><rect fill="#20231f" x="1110.2" y="587.1" width="12.2" height="24.65" shape-rendering="crispEdges"/><rect fill="#20231f" x="1122.4" y="587.1" width="24.4" height="24.65" shape-rendering="crispEdges"/><rect fill="#20231f" x="1146.8" y="587.1" width="109.8" height="24.65" shape-rendering="crispEdges"/><rect fill="#20231f" x="1256.6" y="587.1" width="158.6" height="24.65" shape-rendering="crispEdges"/><rect fill="#000402" x="1415.2" y="587.1" width="24.4" height="24.65" shape-rendering="crispEdges"/><rect fill="#20231f" x="1439.6" y="587.1" width="24.4" height="24.65" shape-rendering="crispEdges"/><rect fill="#171918" x="0" y="611.5" width="256.2" height="24.65" shape-rendering="crispEdges"/><rect fill="#171918" x="256.2" y="611.5" width="12.2" height="24.65" shape-rendering="crispEdges"/><rect fill="#171918" x="268.4" y="611.5" width="841.8" height="24.65" shape-rendering="crispEdges"/><rect fill="#20231f" x="1110.2" y="611.5" width="12.2" height="24.65" shape-rendering="crispEdges"/><rect fill="#20231f" x="1122.4" y="611.5" width="341.6" height="24.65" shape-rendering="crispEdges"/><rect fill="#171918" x="0" y="635.9" width="1464" height="24.65" shape-rendering="crispEdges"/><rect fill="#171918" x="0" y="660.3" width="1464" height="24.65" shape-rendering="crispEdges"/><rect fill="#171918" x="0" y="684.7" width="36.6" height="24.65" shape-rendering="crispEdges"/><rect fill="#171918" x="36.6" y="684.7" width="97.6" height="24.65" shape-rendering="crispEdges"/><rect fill="#171918" x="134.2" y="684.7" width="12.2" height="24.65" shape-rendering="crispEdges"/><rect fill="#171918" x="146.4" y="684.7" width="0" height="24.65" shape-rendering="crispEdges"/><rect fill="#171918" x="146.4" y="684.7" width="463.6" height="24.65" shape-rendering="crispEdges"/><rect fill="#171918" x="610" y="684.7" width="134.2" height="24.65" shape-rendering="crispEdges"/><rect fill="#171918" x="744.2" y="684.7" width="0" height="24.65" shape-rendering="crispEdges"/><rect fill="#171918" x="744.2" y="684.7" width="475.8" height="24.65" shape-rendering="crispEdges"/><rect fill="#dfb56d" x="1220" y="684.7" width="36.6" height="24.65" shape-rendering="crispEdges"/><rect fill="#dfb56d" x="1256.6" y="684.7" width="146.4" height="24.65" shape-rendering="crispEdges"/><rect fill="#dfb56d" x="1403" y="684.7" width="36.6" height="24.65" shape-rendering="crispEdges"/><rect fill="#171918" x="1439.6" y="684.7" width="24.4" height="24.65" shape-rendering="crispEdges"/><rect fill="#171918" x="0" y="709.1" width="36.6" height="24.65" shape-rendering="crispEdges"/><rect fill="#171918" x="36.6" y="709.1" width="97.6" height="24.65" shape-rendering="crispEdges"/><rect fill="#171918" x="134.2" y="709.1" width="475.8" height="24.65" shape-rendering="crispEdges"/><rect fill="#171918" x="610" y="709.1" width="134.2" height="24.65" shape-rendering="crispEdges"/><rect fill="#171918" x="744.2" y="709.1" width="475.8" height="24.65" shape-rendering="crispEdges"/><rect fill="#dfb56d" x="1220" y="709.1" width="12.2" height="24.65" shape-rendering="crispEdges"/><rect fill="#dfb56d" x="1232.2" y="709.1" width="195.2" height="24.65" shape-rendering="crispEdges"/><rect fill="#dfb56d" x="1427.4" y="709.1" width="12.2" height="24.65" shape-rendering="crispEdges"/><rect fill="#171918" x="1439.6" y="709.1" width="24.4" height="24.65" shape-rendering="crispEdges"/><rect fill="#171918" x="0" y="733.5" width="1464" height="24.65" shape-rendering="crispEdges"/><rect fill="#20231f" x="0" y="757.9" width="12.2" height="24.65" shape-rendering="crispEdges"/><rect fill="#20231f" x="12.2" y="757.9" width="61" height="24.65" shape-rendering="crispEdges"/><rect fill="#20231f" x="73.2" y="757.9" width="12.2" height="24.65" shape-rendering="crispEdges"/><rect fill="#20231f" x="85.4" y="757.9" width="12.2" height="24.65" shape-rendering="crispEdges"/><rect fill="#20231f" x="97.6" y="757.9" width="61" height="24.65" shape-rendering="crispEdges"/><rect fill="#20231f" x="158.6" y="757.9" width="12.2" height="24.65" shape-rendering="crispEdges"/><rect fill="#20231f" x="170.8" y="757.9" width="24.4" height="24.65" shape-rendering="crispEdges"/><rect fill="#20231f" x="195.2" y="757.9" width="134.2" height="24.65" shape-rendering="crispEdges"/><rect fill="#20231f" x="329.4" y="757.9" width="12.2" height="24.65" shape-rendering="crispEdges"/><rect fill="#20231f" x="341.6" y="757.9" width="24.4" height="24.65" shape-rendering="crispEdges"/><rect fill="#20231f" x="366" y="757.9" width="97.6" height="24.65" shape-rendering="crispEdges"/><rect fill="#20231f" x="463.6" y="757.9" width="1000.4" height="24.65" shape-rendering="crispEdges"/>
    <g class="terminal-matrix">
    <text class="terminal-r1" x="1464" y="20" textLength="12.2" clip-path="url(#terminal-line-0)">
</text><text class="terminal-r2" x="24.4" y="44.4" textLength="109.8" clip-path="url(#terminal-line-1)">ETHERNITY</text><text class="terminal-r3" x="195.2" y="44.4" textLength="158.6" clip-path="url(#terminal-line-1)">Create&#160;backup</text><text class="terminal-r2" x="1366.4" y="44.4" textLength="73.2" clip-path="url(#terminal-line-1)">v1.2.0</text><text class="terminal-r1" x="1464" y="44.4" textLength="12.2" clip-path="url(#terminal-line-1)">
</text><text class="terminal-r1" x="1464" y="68.8" textLength="12.2" clip-path="url(#terminal-line-2)">
</text><text class="terminal-r4" x="36.6" y="93.2" textLength="207.4" clip-path="url(#terminal-line-3)">&#160;1&#160;Create&#160;backup&#160;</text><text class="terminal-r3" x="292.8" y="93.2" textLength="207.4" clip-path="url(#terminal-line-3)">&#160;2&#160;Restore&#160;files&#160;</text><text class="terminal-r3" x="549" y="93.2" textLength="97.6" clip-path="url(#terminal-line-3)">&#160;Manage&#160;</text><text class="terminal-r3" x="695.4" y="93.2" textLength="85.4" clip-path="url(#terminal-line-3)">&#160;Tools&#160;</text><text class="terminal-r1" x="1464" y="93.2" textLength="12.2" clip-path="url(#terminal-line-3)">
</text><text class="terminal-r1" x="1464" y="117.6" textLength="12.2" clip-path="url(#terminal-line-4)">
</text><text class="terminal-r5" x="0" y="142" textLength="1464" clip-path="url(#terminal-line-5)">────────────────────────────────────────────────────────────────────────────────────────────────────────────────────────</text><text class="terminal-r1" x="1464" y="142" textLength="12.2" clip-path="url(#terminal-line-5)">
</text><text class="terminal-r5" x="256.2" y="166.4" textLength="12.2" clip-path="url(#terminal-line-6)">│</text><text class="terminal-r5" x="1110.2" y="166.4" textLength="12.2" clip-path="url(#terminal-line-6)">│</text><text class="terminal-r1" x="1464" y="166.4" textLength="12.2" clip-path="url(#terminal-line-6)">
</text><text class="terminal-r3" x="12.2" y="190.8" textLength="97.6" clip-path="url(#terminal-line-7)">WORKFLOW</text><text class="terminal-r5" x="256.2" y="190.8" textLength="12.2" clip-path="url(#terminal-line-7)">│</text><text class="terminal-r6" x="292.8" y="190.8" textLength="280.6" clip-path="url(#terminal-line-7)">Choose&#160;files&#160;to&#160;back&#160;up</text><text class="terminal-r5" x="1110.2" y="190.8" textLength="12.2" clip-path="url(#terminal-line-7)">│</text><text class="terminal-r3" x="1146.8" y="190.8" textLength="85.4" clip-path="url(#terminal-line-7)">SUMMARY</text><text class="terminal-r1" x="1464" y="190.8" textLength="12.2" clip-path="url(#terminal-line-7)">
</text><text class="terminal-r5" x="256.2" y="215.2" textLength="12.2" clip-path="url(#terminal-line-8)">│</text><text class="terminal-r5" x="1110.2" y="215.2" textLength="12.2" clip-path="url(#terminal-line-8)">│</text><text class="terminal-r1" x="1464" y="215.2" textLength="12.2" clip-path="url(#terminal-line-8)">
</text><text class="terminal-r4" x="24.4" y="239.6" textLength="97.6" clip-path="url(#terminal-line-9)">01&#160;Files</text><text class="terminal-r5" x="256.2" y="239.6" textLength="12.2" clip-path="url(#terminal-line-9)">│</text><text class="terminal-r3" x="292.8" y="239.6" textLength="695.4" clip-path="url(#terminal-line-9)">Select&#160;files&#160;or&#160;folders&#160;to&#160;include&#160;in&#160;the&#160;printed&#160;backup.</text><text class="terminal-r5" x="1110.2" y="239.6" textLength="12.2" clip-path="url(#terminal-line-9)">│</text><text class="terminal-r3" x="1146.8" y="239.6" textLength="61" clip-path="url(#terminal-line-9)">Files</text><text class="terminal-r1" x="1464" y="239.6" textLength="12.2" clip-path="url(#terminal-line-9)">
</text><text class="terminal-r5" x="256.2" y="264" textLength="12.2" clip-path="url(#terminal-line-10)">│</text><text class="terminal-r5" x="1110.2" y="264" textLength="12.2" clip-path="url(#terminal-line-10)">│</text><text class="terminal-r8" x="1146.8" y="264" textLength="219.6" clip-path="url(#terminal-line-10)">12&#160;files,&#160;32.0&#160;KiB</text><text class="terminal-r1" x="1464" y="264" textLength="12.2" clip-path="url(#terminal-line-10)">
</text><text class="terminal-r3" x="24.4" y="288.4" textLength="134.2" clip-path="url(#terminal-line-11)">02&#160;Recovery</text><text class="terminal-r5" x="256.2" y="288.4" textLength="12.2" clip-path="url(#terminal-line-11)">│</text><text class="terminal-r3" x="292.8" y="288.4" textLength="61" clip-path="url(#terminal-line-11)">Files</text><text class="terminal-r8" x="500.2" y="288.4" textLength="219.6" clip-path="url(#terminal-line-11)">12&#160;files,&#160;32.0&#160;KiB</text><text class="terminal-r9" x="878.4" y="288.4" textLength="183" clip-path="url(#terminal-line-11)">Choose&#160;files...</text><text class="terminal-r5" x="1110.2" y="288.4" textLength="12.2" clip-path="url(#terminal-line-11)">│</text><text class="terminal-r1" x="1464" y="288.4" textLength="12.2" clip-path="url(#terminal-line-11)">
</text><text class="terminal-r5" x="256.2" y="312.8" textLength="12.2" clip-path="url(#terminal-line-12)">│</text><text class="terminal-r5" x="1110.2" y="312.8" textLength="12.2" clip-path="url(#terminal-line-12)">│</text><text class="terminal-r3" x="1146.8" y="312.8" textLength="97.6" clip-path="url(#terminal-line-12)">Recovery</text><text class="terminal-r1" x="1464" y="312.8" textLength="12.2" clip-path="url(#terminal-line-12)">
</text><text class="terminal-r3" x="24.4" y="337.2" textLength="170.8" clip-path="url(#terminal-line-13)">03&#160;Print&#160;setup</text><text class="terminal-r5" x="256.2" y="337.2" textLength="12.2" clip-path="url(#terminal-line-13)">│</text><text class="terminal-r5" x="1110.2" y="337.2" textLength="12.2" clip-path="url(#terminal-line-13)">│</text><text class="terminal-r8" x="1146.8" y="337.2" textLength="268.4" clip-path="url(#terminal-line-13)">3&#160;recovery&#160;sheets;&#160;any</text><text class="terminal-r1" x="1464" y="337.2" textLength="12.2" clip-path="url(#terminal-line-13)">
</text><text class="terminal-r5" x="256.2" y="361.6" textLength="12.2" clip-path="url(#terminal-line-14)">│</text><text class="terminal-r3" x="292.8" y="361.6" textLength="195.2" clip-path="url(#terminal-line-14)">-&#160;Selected&#160;files</text><text class="terminal-r5" x="1110.2" y="361.6" textLength="12.2" clip-path="url(#terminal-line-14)">│</text><text class="terminal-r8" x="1146.8" y="361.6" textLength="158.6" clip-path="url(#terminal-line-14)">2&#160;can&#160;restore</text><text class="terminal-r1" x="1464" y="361.6" textLength="12.2" clip-path="url(#terminal-line-14)">
</text><text class="terminal-r3" x="24.4" y="386" textLength="109.8" clip-path="url(#terminal-line-15)">04&#160;Review</text><text class="terminal-r5" x="256.2" y="386" textLength="12.2" clip-path="url(#terminal-line-15)">│</text><text class="terminal-r5" x="1110.2" y="386" textLength="12.2" clip-path="url(#terminal-line-15)">│</text><text class="terminal-r8" x="1146.8" y="386" textLength="158.6" clip-path="url(#terminal-line-15)">(recommended)</text><text class="terminal-r1" x="1464" y="386" textLength="12.2" clip-path="url(#terminal-line-15)">
</text><text class="terminal-r5" x="256.2" y="410.4" textLength="12.2" clip-path="url(#terminal-line-16)">│</text><text class="terminal-r8" x="317.2" y="410.4" textLength="610" clip-path="url(#terminal-line-16)">family-records.ged:&#160;~/Documents/family-records.ged</text><text class="terminal-r5" x="1110.2" y="410.4" textLength="12.2" clip-path="url(#terminal-line-16)">│</text><text class="terminal-r1" x="1464" y="410.4" textLength="12.2" clip-path="url(#terminal-line-16)">
</text><text class="terminal-r5" x="256.2" y="434.8" textLength="12.2" clip-path="url(#terminal-line-17)">│</text><text class="terminal-r8" x="317.2" y="434.8" textLength="610" clip-path="url(#terminal-line-17)">recovery-notes.txt:&#160;~/Documents/recovery-notes.txt</text><text class="terminal-r5" x="1110.2" y="434.8" textLength="12.2" clip-path="url(#terminal-line-17)">│</text><text class="terminal-r3" x="1146.8" y="434.8" textLength="61" clip-path="url(#terminal-line-17)">Print</text><text class="terminal-r1" x="1464" y="434.8" textLength="12.2" clip-path="url(#terminal-line-17)">
</text><text class="terminal-r5" x="256.2" y="459.2" textLength="12.2" clip-path="url(#terminal-line-18)">│</text><text class="terminal-r8" x="317.2" y="459.2" textLength="463.6" clip-path="url(#terminal-line-18)">certificates:&#160;~/Documents/certificates</text><text class="terminal-r5" x="1110.2" y="459.2" textLength="12.2" clip-path="url(#terminal-line-18)">│</text><text class="terminal-r8" x="1146.8" y="459.2" textLength="158.6" clip-path="url(#terminal-line-18)">A4&#160;/&#160;sentinel</text><text class="terminal-r1" x="1464" y="459.2" textLength="12.2" clip-path="url(#terminal-line-18)">
</text><text class="terminal-r5" x="256.2" y="483.6" textLength="12.2" clip-path="url(#terminal-line-19)">│</text><text class="terminal-r5" x="1110.2" y="483.6" textLength="12.2" clip-path="url(#terminal-line-19)">│</text><text class="terminal-r10" x="1415.2" y="483.6" textLength="24.4" clip-path="url(#terminal-line-19)">▄▄</text><text class="terminal-r1" x="1464" y="483.6" textLength="12.2" clip-path="url(#terminal-line-19)">
</text><text class="terminal-r5" x="256.2" y="508" textLength="12.2" clip-path="url(#terminal-line-20)">│</text><text class="terminal-r8" x="329.4" y="508" textLength="158.6" clip-path="url(#terminal-line-20)">&#160;Clear&#160;files&#160;</text><text class="terminal-r5" x="1110.2" y="508" textLength="12.2" clip-path="url(#terminal-line-20)">│</text><text class="terminal-r3" x="1146.8" y="508" textLength="85.4" clip-path="url(#terminal-line-20)">Save&#160;to</text><text class="terminal-r1" x="1464" y="508" textLength="12.2" clip-path="url(#terminal-line-20)">
</text><text class="terminal-r5" x="256.2" y="532.4" textLength="12.2" clip-path="url(#terminal-line-21)">│</text><text class="terminal-r5" x="1110.2" y="532.4" textLength="12.2" clip-path="url(#terminal-line-21)">│</text><text class="terminal-r8" x="1146.8" y="532.4" textLength="268.4" clip-path="url(#terminal-line-21)">~/Backups/family-archi</text><text class="terminal-r1" x="1464" y="532.4" textLength="12.2" clip-path="url(#terminal-line-21)">
</text><text class="terminal-r5" x="256.2" y="556.8" textLength="12.2" clip-path="url(#terminal-line-22)">│</text><text class="terminal-r5" x="1110.2" y="556.8" textLength="12.2" clip-path="url(#terminal-line-22)">│</text><text class="terminal-r8" x="1146.8" y="556.8" textLength="24.4" clip-path="url(#terminal-line-22)">ve</text><text class="terminal-r1" x="1464" y="556.8" textLength="12.2" clip-path="url(#terminal-line-22)">
</text><text class="terminal-r5" x="256.2" y="581.2" textLength="12.2" clip-path="url(#terminal-line-23)">│</text><text class="terminal-r5" x="1110.2" y="581.2" textLength="12.2" clip-path="url(#terminal-line-23)">│</text><text class="terminal-r1" x="1464" y="581.2" textLength="12.2" clip-path="url(#terminal-line-23)">
</text><text class="terminal-r5" x="256.2" y="605.6" textLength="12.2" clip-path="url(#terminal-line-24)">│</text><text class="terminal-r5" x="1110.2" y="605.6" textLength="12.2" clip-path="url(#terminal-line-24)">│</text><text class="terminal-r3" x="1146.8" y="605.6" textLength="109.8" clip-path="url(#terminal-line-24)">Documents</text><text class="terminal-r1" x="1464" y="605.6" textLength="12.2" clip-path="url(#terminal-line-24)">
</text><text class="terminal-r5" x="256.2" y="630" textLength="12.2" clip-path="url(#terminal-line-25)">│</text><text class="terminal-r5" x="1110.2" y="630" textLength="12.2" clip-path="url(#terminal-line-25)">│</text><text class="terminal-r1" x="1464" y="630" textLength="12.2" clip-path="url(#terminal-line-25)">
</text><text class="terminal-r5" x="0" y="654.4" textLength="1464" clip-path="url(#terminal-line-26)">────────────────────────────────────────────────────────────────────────────────────────────────────────────────────────</text><text class="terminal-r1" x="1464" y="654.4" textLength="12.2" clip-path="url(#terminal-line-26)">
</text><text class="terminal-r1" x="1464" y="678.8" textLength="12.2" clip-path="url(#terminal-line-27)">
</text><text class="terminal-r11" x="36.6" y="703.2" textLength="97.6" clip-path="url(#terminal-line-28)">&#160;&lt;&#160;Back&#160;</text><text class="terminal-r3" x="610" y="703.2" textLength="134.2" clip-path="url(#terminal-line-28)">Step&#160;1&#160;of&#160;4</text><text class="terminal-r12" x="1256.6" y="703.2" textLength="146.4" clip-path="url(#terminal-line-28)">&#160;Continue&#160;&gt;&#160;</text><text class="terminal-r1" x="1464" y="703.2" textLength="12.2" clip-path="url(#terminal-line-28)">
</text><text class="terminal-r1" x="1464" y="727.6" textLength="12.2" clip-path="url(#terminal-line-29)">
</text><text class="terminal-r1" x="1464" y="752" textLength="12.2" clip-path="url(#terminal-line-30)">
</text><text class="terminal-r4" x="0" y="776.4" textLength="12.2" clip-path="url(#terminal-line-31)">q</text><text class="terminal-r3" x="12.2" y="776.4" textLength="61" clip-path="url(#terminal-line-31)">&#160;Quit</text><text class="terminal-r4" x="85.4" y="776.4" textLength="12.2" clip-path="url(#terminal-line-31)">?</text><text class="terminal-r3" x="97.6" y="776.4" textLength="61" clip-path="url(#terminal-line-31)">&#160;Help</text><text class="terminal-r4" x="170.8" y="776.4" textLength="24.4" clip-path="url(#terminal-line-31)">^b</text><text class="terminal-r3" x="195.2" y="776.4" textLength="134.2" clip-path="url(#terminal-line-31)">&#160;Navigation</text><text class="terminal-r4" x="341.6" y="776.4" textLength="24.4" clip-path="url(#terminal-line-31)">^p</text><text class="terminal-r3" x="366" y="776.4" textLength="97.6" clip-path="url(#terminal-line-31)">&#160;Actions</text>
    </g>
    </g>
</svg>
